<svg width="408" height="372" viewBox="0 0 408 372" fill="none" xmlns="http://www.w3.org/2000/svg">
<g filter="url(#filter0_d)">
<path d="M359.158 252.817C417.767 265.8 377.264 323.585 324.559 337.543C232.508 361.921 83.0758 345.994 -4.49471 265.104C-92.0653 184.214 -42.5433 29.6905 33.636 17.1385C109.815 4.58658 148.732 99.1695 172.036 136.245C237.706 240.725 302.181 240.195 359.158 252.817Z" fill="#FC797F"/>
<path d="M359.158 252.817C417.767 265.8 377.264 323.585 324.559 337.543C232.508 361.921 83.0758 345.994 -4.49471 265.104C-92.0653 184.214 -42.5433 29.6905 33.636 17.1385C109.815 4.58658 148.732 99.1695 172.036 136.245C237.706 240.725 302.181 240.195 359.158 252.817Z" fill="url(#paint0_linear)"/>
</g>
<defs>
<filter id="filter0_d" x="-71" y="0" width="479" height="372" filterUnits="userSpaceOnUse" color-interpolation-filters="sRGB">
<feFlood flood-opacity="0" result="BackgroundImageFix"/>
<feColorMatrix in="SourceAlpha" type="matrix" values="0 0 0 0 0 0 0 0 0 0 0 0 0 0 0 0 0 0 127 0"/>
<feOffset dy="4"/>
<feGaussianBlur stdDeviation="10"/>
<feColorMatrix type="matrix" values="0 0 0 0 0.988235 0 0 0 0 0.47451 0 0 0 0 0.498039 0 0 0 0.3 0"/>
<feBlend mode="normal" in2="BackgroundImageFix" result="effect1_dropShadow"/>
<feBlend mode="normal" in="SourceGraphic" in2="effect1_dropShadow" result="shape"/>
</filter>
<linearGradient id="paint0_linear" x1="167.898" y1="366.797" x2="168.111" y2="15.9997" gradientUnits="userSpaceOnUse">
<stop stop-color="#FCC659"/>
<stop offset="0.893961" stop-color="#FC797F"/>
</linearGradient>
</defs>
</svg>
