<svg width="295" height="289" viewBox="0 0 295 289" fill="none" xmlns="http://www.w3.org/2000/svg">
<g filter="url(#filter0_d)">
<path d="M45.2123 116.125C-6.41255 109.459 34.3905 71.4746 58.0821 56.4486C78.9342 40.2536 203.802 -20.0721 283.941 50.1024C364.079 120.277 325.941 249.967 258.383 263.104C190.825 276.241 174.873 208.009 152.976 175.533C131.079 143.057 96.8372 122.791 45.2123 116.125Z" fill="#FC797F"/>
<path d="M45.2123 116.125C-6.41255 109.459 34.3905 71.4746 58.0821 56.4486C78.9342 40.2536 203.802 -20.0721 283.941 50.1024C364.079 120.277 325.941 249.967 258.383 263.104C190.825 276.241 174.873 208.009 152.976 175.533C131.079 143.057 96.8372 122.791 45.2123 116.125Z" fill="url(#paint0_linear)"/>
</g>
<defs>
<filter id="filter0_d" x="0.275391" y="0.890137" width="348.746" height="287.872" filterUnits="userSpaceOnUse" color-interpolation-filters="sRGB">
<feFlood flood-opacity="0" result="BackgroundImageFix"/>
<feColorMatrix in="SourceAlpha" type="matrix" values="0 0 0 0 0 0 0 0 0 0 0 0 0 0 0 0 0 0 127 0"/>
<feOffset dy="4"/>
<feGaussianBlur stdDeviation="10"/>
<feColorMatrix type="matrix" values="0 0 0 0 0.988235 0 0 0 0 0.47451 0 0 0 0 0.498039 0 0 0 0.3 0"/>
<feBlend mode="normal" in2="BackgroundImageFix" result="effect1_dropShadow"/>
<feBlend mode="normal" in="SourceGraphic" in2="effect1_dropShadow" result="shape"/>
</filter>
<linearGradient id="paint0_linear" x1="170.788" y1="-11.3859" x2="177.028" y2="210.712" gradientUnits="userSpaceOnUse">
<stop stop-color="#FCC659"/>
<stop offset="1" stop-color="#FC797F"/>
</linearGradient>
</defs>
</svg>
