<svg width="117" height="102" viewBox="0 0 117 102" fill="none" xmlns="http://www.w3.org/2000/svg">
<path d="M106.852 99.8248L9.9128 97.4906C5.54615 97.4906 2.02637 96.2068 2.02637 91.4216V26.2673C2.02637 21.4529 5.57262 17.5723 9.9128 17.5723H106.852C111.219 17.5723 114.739 21.4821 114.739 26.2673V91.1298C114.739 95.9442 111.193 99.8248 106.852 99.8248Z" stroke="white" stroke-width="3" stroke-miterlimit="10" stroke-linecap="round"/>
<path d="M15.7616 30.6738H10.2041C9.03964 30.6738 8.08691 29.6234 8.08691 28.3396V26.2971C8.08691 25.0133 9.03964 23.9629 10.2041 23.9629H15.7616C16.9261 23.9629 17.8788 25.0133 17.8788 26.2971V28.3396C17.8788 29.6526 16.9261 30.6738 15.7616 30.6738Z" fill="white"/>
<path d="M29.2577 30.6738H23.7002C22.5357 30.6738 21.583 29.6234 21.583 28.3396V26.2971C21.583 25.0133 22.5357 23.9629 23.7002 23.9629H29.2577C30.4222 23.9629 31.3749 25.0133 31.3749 26.2971V28.3396C31.3749 29.6526 30.4222 30.6738 29.2577 30.6738Z" fill="white"/>
<path d="M12.8506 17.4854V8.20679C12.8506 6.92296 13.8033 5.87256 14.9677 5.87256H31.6404C32.8049 5.87256 33.7576 6.92296 33.7576 8.20679V17.4854" stroke="white" stroke-width="3" stroke-miterlimit="10" stroke-linecap="round"/>
<path d="M84.4639 36.5093H114.739" stroke="white" stroke-width="3" stroke-miterlimit="10" stroke-linecap="round"/>
<path d="M2 36.5093H47.3602" stroke="white" stroke-width="3" stroke-miterlimit="10" stroke-linecap="round"/>
<path d="M24.5742 36.5093V97.4911" stroke="white" stroke-width="3" stroke-miterlimit="10" stroke-linecap="round"/>
<path d="M44.0254 17.5435L48.5773 7.5938C49.3977 5.81395 50.9856 4.64683 52.7852 4.47176L77.4766 2.37095C79.382 2.19588 81.2345 3.21711 82.2402 4.99697L89.4386 17.5435" stroke="white" stroke-width="3" stroke-miterlimit="10" stroke-linecap="round"/>
<path d="M65.7431 89.2875C82.0236 89.2875 95.2216 76.0774 95.2216 59.7819C95.2216 43.4865 82.0236 30.2764 65.7431 30.2764C49.4626 30.2764 36.2646 43.4865 36.2646 59.7819C36.2646 76.0774 49.4626 89.2875 65.7431 89.2875Z" stroke="white" stroke-width="3" stroke-miterlimit="10" stroke-linecap="round"/>
<path d="M65.7454 75.0436C74.1879 75.0436 81.0318 68.1996 81.0318 59.7571C81.0318 51.3147 74.1879 44.4707 65.7454 44.4707C57.3029 44.4707 50.459 51.3147 50.459 59.7571C50.459 68.1996 57.3029 75.0436 65.7454 75.0436Z" fill="white"/>
</svg>
