<svg width="102" height="132" viewBox="0 0 102 132" fill="none" xmlns="http://www.w3.org/2000/svg">
<path d="M12.9135 78.14L7.66259 118.941C7.46811 120.691 8.71276 122.247 10.4631 122.403L91.521 129.987C93.3102 130.143 94.866 128.782 94.9049 127.031L97.5109 66.7437" stroke="white" stroke-width="3" stroke-miterlimit="10" stroke-linecap="round"/>
<path d="M20.0029 86.7194L44.1773 86.0237M89.2863 84.7256L67.8533 85.3424M20.0029 101.673L44.1773 102.117M87.7909 102.919L67.8533 102.552M20.0029 109.648L87.0433 111.143M44.1773 102.117V86.0237M44.1773 102.117L67.8533 102.552M44.1773 86.0237L67.8533 85.3424M67.8533 85.3424V102.552" stroke="white" stroke-width="3" stroke-linecap="round"/>
<path d="M100.467 67.6382L80.6689 69.8552L91.793 52.5857L98.483 51.8467L100.467 67.6382Z" fill="white"/>
<path d="M83.3135 53.519L71.4504 70.8664L54.6865 72.7722L67.3275 55.3471L83.3135 53.519Z" fill="white"/>
<path d="M57.4092 56.4365L44.6126 73.9005L28.7822 75.6508L42.5901 58.109L57.4092 56.4365Z" fill="white"/>
<path d="M31.5053 59.3535L18.1253 76.8564H18.0864L10.8518 77.6732L8.86816 61.8817L31.5053 59.3535Z" fill="white"/>
<path d="M57.4484 56.4365H57.4092" stroke="white" stroke-width="3" stroke-miterlimit="10" stroke-linecap="round"/>
<path d="M83.3537 53.519H83.3145" stroke="white" stroke-width="3" stroke-miterlimit="10" stroke-linecap="round"/>
<path d="M11.9784 61.4533L95.6423 52.0406C97.3537 51.8461 98.8706 53.0519 99.0651 54.7633L100.271 64.526C100.465 66.2374 99.2596 67.7932 97.5482 67.9877L13.8454 77.4004C12.134 77.5948 10.6171 76.3891 10.4226 74.6777L9.21684 64.9149C9.02237 63.2036 10.2281 61.6477 11.9784 61.4533Z" stroke="white" stroke-width="3" stroke-miterlimit="10" stroke-linecap="round"/>
<path d="M85.6488 15.3245L68.9238 26.1763L71.1409 5.79516L76.8196 2.1001L85.6488 15.3245Z" fill="white"/>
<path d="M64.0215 10.4238L61.1433 31.2328L46.9854 40.451L50.4859 19.1753L64.0215 10.4238Z" fill="white"/>
<path d="M42.1623 24.6211L38.5061 45.9357L25.165 54.6094L29.638 32.7502L42.1623 24.6211Z" fill="white"/>
<path d="M20.2646 38.8174L16.1417 60.4821L9.99624 64.4494L1.16699 51.225L20.2646 38.8174Z" fill="white"/>
<path d="M3.73448 49.4747L74.3295 3.57816C75.7687 2.64467 77.6745 3.03363 78.608 4.47276L84.0534 12.6797C85.0258 14.1188 84.5979 16.0636 83.1588 16.9971L12.5637 62.8936C11.1246 63.8271 9.21872 63.4381 8.28523 61.999L2.83988 53.7921C1.90639 52.3529 2.29535 50.4082 3.73448 49.4747Z" stroke="white" stroke-width="3" stroke-miterlimit="10" stroke-linecap="round"/>
</svg>
