<svg width="97" height="139" viewBox="0 0 97 139" fill="none" xmlns="http://www.w3.org/2000/svg">
<circle r="18.5157" transform="matrix(-0.971804 0.235788 0.235788 0.971804 48.1831 47.7754)" stroke="white" stroke-width="3"/>
<circle r="6.66432" transform="matrix(-0.971804 0.235788 0.235788 0.971804 47.99 48.0935)" stroke="white" stroke-width="3"/>
<circle cx="48.0144" cy="48.0144" r="31.4255" stroke="white" stroke-width="3"/>
<circle r="4.1731" transform="matrix(-0.971804 0.235788 0.235788 0.971804 20.1297 34.4437)" fill="white"/>
<circle r="3.00789" transform="matrix(-0.971804 0.235788 0.235788 0.971804 33.0381 20.6299)" fill="white"/>
<circle r="6.09051" transform="matrix(-0.971804 0.235788 0.235788 0.971804 76.8435 60.6185)" fill="white"/>
<path d="M30.718 101.048V56.5928C30.718 56.5928 31.047 50.0552 37.2978 50.0552C43.5486 50.0552 43.2196 56.5928 43.2196 56.5928V90.2613V77.7418C43.2196 77.7418 43.8776 73.5905 49.4703 73.9174C55.0631 74.2442 54.7341 80.4549 54.7341 80.4549V91.5688V80.4549C54.7341 80.4549 55.7211 76.2055 60.3269 76.2055C64.9328 76.2055 65.6565 80.4549 65.6565 85.8484L65.5578 96.995V86.7964C65.5578 86.7964 65.5578 79.1474 71.5454 79.1474C77.533 79.1474 77.533 86.7964 77.533 86.7964C77.533 86.7964 77.533 102.977 77.533 109.776C77.533 116.575 72.4008 122.557 68.9793 126.806C65.5578 131.056 68.5516 137.005 68.5516 137.005H29.7311C29.7311 137.005 31.376 131.448 29.0731 128.179C26.7702 124.911 19.2035 118.373 19.2035 113.143C19.2035 107.913 17.9862 93.8243 21.5064 90.9151C23.4803 89.2807 27.7571 85.3581 30.718 88.9538" fill="#02060F"/>
<path d="M30.718 101.048V56.5928C30.718 56.5928 31.047 50.0552 37.2978 50.0552C43.5486 50.0552 43.2196 56.5928 43.2196 56.5928V90.2613V77.7418C43.2196 77.7418 43.8776 73.5905 49.4703 73.9174C55.0631 74.2442 54.7342 80.4549 54.7342 80.4549V91.5688V80.4549C54.7342 80.4549 55.7211 76.2055 60.3269 76.2055C64.9328 76.2055 65.6565 80.4549 65.6565 85.8484L65.5578 96.995V86.7964C65.5578 86.7964 65.5578 79.1474 71.5454 79.1474C77.533 79.1474 77.533 86.7964 77.533 86.7964C77.533 86.7964 77.533 102.977 77.533 109.776C77.533 116.575 72.4008 122.557 68.9793 126.806C65.5578 131.056 68.5516 137.005 68.5516 137.005H29.7311C29.7311 137.005 31.376 131.448 29.0731 128.179C26.7702 124.911 19.2035 118.373 19.2035 113.143C19.2035 107.913 17.9862 93.8243 21.5064 90.9151C23.4803 89.2807 27.7571 85.3581 30.718 88.9538" stroke="white" stroke-width="3" stroke-miterlimit="10"/>
</svg>
