<svg width="387" height="189" viewBox="0 0 387 189" fill="none" xmlns="http://www.w3.org/2000/svg">
<path fill-rule="evenodd" clip-rule="evenodd" d="M21.5968 64.0605C20.0447 65.0537 18.4743 66.0587 16.8508 66.9432C17.2402 47.6864 25.6297 32.7128 42.4794 22.6241C50.7627 17.7037 59.8955 15.863 69.4886 15.9692C74.3028 16.0046 77.7718 12.5709 77.878 8.14611C77.9842 3.79208 74.7275 0.181415 70.2673 0.0398209C49.9485 -0.597354 32.7094 6.41157 18.7269 21.102C6.01881 34.4827 0.532027 50.8722 0.17804 68.9963C-0.0669998 80.6358 -0.00671607 92.2582 0.0536015 103.887C0.080419 109.057 0.107243 114.229 0.107243 119.404C0.107243 120.643 0.107243 121.917 0.248838 123.156C0.70902 127.687 3.7533 130.413 8.28433 130.378C13.0631 130.342 16.1782 127.085 16.2136 121.811C16.249 116.165 16.249 110.528 16.249 104.891C16.249 99.2533 16.249 93.6161 16.2844 87.97C16.3198 78.8372 22.4792 72.961 31.8598 72.961C40.4971 72.9256 44.6033 77.4566 44.7803 87.2974V90.3063V120.006C44.7803 120.203 44.7789 120.402 44.7775 120.602V120.602C44.7718 121.404 44.7661 122.221 44.8511 123.015C45.3821 127.723 48.5326 130.519 53.1698 130.378C57.63 130.271 60.7451 127.439 60.7805 122.767C60.7893 119.291 60.8313 115.81 60.8733 112.328L60.8734 112.327C60.9995 101.876 61.1257 91.4139 60.3557 81.0319C59.0814 63.6158 49.8777 55.4387 31.7536 59.1201C28.2202 59.822 24.9514 61.9138 21.5968 64.0605ZM352.997 130.626C359.652 129.918 364.643 125.882 369.705 121.21C369.749 121.676 369.786 122.047 369.818 122.359C369.863 122.803 369.897 123.128 369.917 123.44C370.342 142.059 357.846 161.033 340.289 168.608C332.926 171.794 325.244 173.104 317.244 173.104C312.43 173.104 309.032 176.715 309.067 181.139C309.102 185.6 312.572 189.104 317.35 188.998L317.377 188.997C322.359 188.891 327.412 188.784 332.289 187.83C362.165 181.883 383.086 158.555 386.307 126.909C387.063 119.497 386.976 111.977 386.888 104.465V104.463V104.46V104.458V104.456V104.453V104.451V104.449V104.447V104.444V104.442V104.44V104.437V104.435V104.433C386.853 101.408 386.818 98.3837 386.838 95.3685L386.838 95.3542C386.873 85.943 386.909 76.5671 386.802 67.1558C386.732 61.5982 383.227 58.3416 378.059 58.6955C373.493 59.0141 370.696 62.3062 370.661 67.8638C370.632 72.573 370.644 77.2762 370.657 81.9759V81.9791C370.676 88.6889 370.694 95.3916 370.59 102.094C370.448 110.236 364.431 115.829 355.97 116.112C347.298 116.395 343.085 112.537 342.165 103.369C342.047 102.218 342.052 101.068 342.057 99.9181V99.9173C342.058 99.6872 342.059 99.4571 342.059 99.227C342.059 96.6097 342.061 93.9902 342.063 91.3696V91.3663V91.3629V91.3596V91.3563V91.353V91.3497V91.3464V91.343V91.3397C342.07 83.4436 342.076 75.5376 342.023 67.6514C341.952 61.8106 338.873 58.5894 333.74 58.6955C328.961 58.8017 326.058 62.1646 326.058 67.8284C326.058 70.9484 326.051 74.0659 326.043 77.1814V77.182V77.1827V77.1834V77.184V77.1847V77.1853V77.186V77.1867V77.1873V77.188V77.1887V77.1893V77.19V77.1907C326.022 85.4891 326.001 93.774 326.129 102.059C326.2 106.024 326.696 110.059 327.545 113.953C330.235 126.095 337.634 132.289 352.997 130.626ZM260.359 66.1288C269.704 57.5269 280.182 54.6596 292.005 59.403C304.324 64.3588 310.625 74.2351 312.607 86.8724C314.554 99.1557 312.359 110.66 303.934 120.253C293.138 132.501 276.111 134.2 262.943 124.607C262.678 124.415 262.409 124.222 262.111 124.009C261.532 123.594 260.844 123.101 259.863 122.377V134.023C259.863 135.355 259.867 136.687 259.871 138.021V138.032V138.036V138.04V138.044V138.048V138.052V138.055V138.059V138.063V138.067V138.071V138.075V138.078C259.879 140.73 259.887 143.387 259.863 146.059C259.828 152.254 256.96 155.758 251.934 155.864C246.73 155.97 243.792 152.501 243.757 145.988C243.733 134.136 243.741 122.3 243.749 110.458V110.454V110.45V110.446V110.442V110.439V110.435V110.431V110.427V110.423V110.419V110.415V110.411V110.407C243.753 104.476 243.757 98.5434 243.757 92.6069C243.757 84.0759 243.757 75.5802 243.792 67.0491C243.827 63.1553 245.527 60.1464 249.279 58.9428C252.429 57.9517 255.58 58.4473 257.775 61.2438C258.446 62.1468 258.936 63.1862 259.462 64.3025C259.74 64.8927 260.028 65.5044 260.359 66.1288ZM297.81 94.0229C297.793 93.678 297.777 93.3332 297.762 92.9884C297.715 91.9527 297.669 90.9169 297.563 89.8812C296.536 80.2882 289.527 72.9961 280.253 71.8988C271.686 70.9076 263.615 76.1112 260.606 84.9608C258.058 92.4299 258.482 99.7929 262.412 106.731C268.96 118.271 285.208 119.298 293.102 108.749C296.43 104.43 297.881 99.4743 297.81 94.0229ZM196.641 57.3147C189.136 57.5625 183.118 61.2794 177.561 66.3768C176.534 62.6245 175.012 59.5448 171.047 58.7307C165.207 57.5979 161.242 61.244 161.242 67.8635C161.218 85.224 161.226 102.585 161.234 119.945V119.97C161.238 128.655 161.242 137.339 161.242 146.024C161.242 146.307 161.221 146.603 161.199 146.9C161.142 147.679 161.086 148.459 161.419 148.997C161.642 149.347 161.865 149.706 162.09 150.07C163.254 151.951 164.477 153.929 166.198 155.086C168.747 156.785 172.109 156.325 174.127 153.953C175.685 152.112 176.959 149.457 177.065 147.086C177.321 141.251 177.281 135.416 177.239 129.326C177.223 126.993 177.207 124.623 177.207 122.2C178.34 123.085 178.906 123.51 179.472 123.935C193.773 135.05 213.207 132.572 223.402 117.634C232.889 103.722 233.349 88.7487 225.526 73.9167C219.544 62.5183 209.632 56.9253 196.641 57.3147ZM176.781 96.9594L176.781 96.9584L176.781 96.9566L176.78 96.9532C176.677 96.3124 176.588 95.7589 176.499 95.3328C176.676 87.6513 178.233 82.0938 182.587 77.6335C191.331 68.5715 205.738 70.2706 212.004 81.2796C216.252 88.7133 216.428 96.6072 213.136 104.43C209.809 112.36 203.26 116.324 194.729 116.006C187.26 115.722 180.605 110.66 178.092 102.944C177.404 100.831 177.047 98.6076 176.781 96.9596L176.781 96.9594ZM127.791 64.784C128.994 60.6778 130.941 57.4919 135.543 57.2795C140.64 57.0317 144.074 60.1822 144.074 65.5274C144.145 83.91 144.11 102.293 144.074 120.711V120.714V120.718V120.721V120.725V120.728V120.732V120.735V120.739V120.742V120.746V120.749L144.074 120.785C144.074 125.528 141.49 128.714 137.348 129.387C133.278 130.059 129.915 127.794 128.286 123.298C126.588 124.037 124.91 124.872 123.235 125.706L123.235 125.706C119.533 127.549 115.842 129.385 111.968 130.165C98.5869 132.82 85.808 126.236 79.4716 113.811C72.4981 100.147 72.7105 86.1648 80.2858 72.8195C89.277 57.0317 108.463 52.6069 123.897 62.2353C124.743 62.7433 125.574 63.3008 126.477 63.9079L126.478 63.908L126.478 63.9081C126.896 64.1894 127.331 64.4814 127.791 64.784ZM90.1616 96.6081V96.6082C90.3399 98.0296 90.5603 99.7877 91.0116 101.492C93.3125 110.271 100.003 115.793 108.392 116.006C117.773 116.254 124.711 111.369 127.508 102.271C129.667 95.2977 129.313 88.3949 125.879 81.8816C119.791 70.3062 104.711 68.3239 95.8258 77.8815C91.5426 82.448 90.162 88.0409 89.9496 95.0499C90.0219 95.494 90.0882 96.0225 90.1616 96.6081ZM0.000986709 188.467C0.000986709 188.573 0.0363853 188.644 0.107183 188.714C0.142581 188.785 0.248777 188.821 0.319574 188.821H4.21342C4.31962 188.821 4.39042 188.785 4.46121 188.714C4.53201 188.644 4.56741 188.573 4.56741 188.467V170.024C4.56741 169.918 4.53201 169.847 4.46121 169.776C4.39042 169.705 4.31962 169.67 4.21342 169.67H0.354973C0.248777 169.67 0.17798 169.705 0.107183 169.776C0.0363853 169.847 0.000986709 169.918 0.000986709 170.024V188.467ZM31.2576 169.812C31.3284 169.741 31.3992 169.706 31.5054 169.706H35.3638C35.47 169.706 35.5408 169.741 35.6116 169.812C35.6824 169.883 35.7178 169.953 35.7178 170.06V188.502C35.7178 188.608 35.6824 188.679 35.6116 188.75C35.5408 188.821 35.47 188.856 35.3638 188.856H31.647C31.47 188.856 31.3284 188.785 31.2576 188.644L24.992 178.237C24.9566 178.166 24.9212 178.166 24.8858 178.166C24.8504 178.166 24.815 178.201 24.815 178.272L24.8504 188.538C24.8504 188.644 24.815 188.715 24.7442 188.785C24.6734 188.856 24.6026 188.892 24.4964 188.892H20.6734C20.5672 188.892 20.4964 188.856 20.4256 188.785C20.3548 188.715 20.3194 188.644 20.3194 188.538V170.095C20.3194 169.989 20.3548 169.918 20.4256 169.847C20.4964 169.776 20.5672 169.741 20.6734 169.741H24.4256C24.6026 169.741 24.7442 169.812 24.815 169.953L31.0806 180.361C31.116 180.431 31.1514 180.431 31.1868 180.431C31.2222 180.431 31.2576 180.396 31.2576 180.325L31.1514 170.024C31.1514 169.953 31.1868 169.883 31.2576 169.812ZM65.6302 170.06C65.6302 169.953 65.5948 169.883 65.524 169.812C65.4886 169.741 65.3824 169.706 65.2762 169.706H51.0814C50.9752 169.706 50.9044 169.741 50.8336 169.812C50.7628 169.883 50.7274 169.953 50.7274 170.06V173.316C50.7274 173.422 50.7628 173.493 50.8336 173.564C50.9044 173.635 50.9752 173.67 51.0814 173.67H55.6832C55.7894 173.67 55.8248 173.706 55.8248 173.812V188.538C55.8248 188.644 55.8602 188.715 55.931 188.785C56.0018 188.856 56.0726 188.892 56.1788 188.892H60.0372C60.1434 188.892 60.2142 188.856 60.285 188.785C60.3558 188.715 60.3912 188.644 60.3912 188.538V173.812C60.3912 173.706 60.4266 173.67 60.5328 173.67H65.2762C65.3824 173.67 65.4532 173.635 65.524 173.564C65.5948 173.493 65.6302 173.422 65.6302 173.316V170.06ZM94.162 173.493C94.0912 173.564 94.0204 173.599 93.9142 173.599H85.3478C85.2416 173.599 85.2062 173.635 85.2062 173.741V177.104C85.2062 177.21 85.2416 177.245 85.3478 177.245H90.8346C90.9408 177.245 91.0115 177.281 91.0823 177.352C91.1531 177.422 91.1885 177.493 91.1885 177.599V180.785C91.1885 180.892 91.1531 180.962 91.0823 181.033C91.0115 181.104 90.9408 181.139 90.8346 181.139H85.3478C85.2416 181.139 85.2062 181.175 85.2062 181.281V184.785C85.2062 184.892 85.2416 184.927 85.3478 184.927H93.9142C94.0204 184.927 94.0912 184.962 94.162 185.033C94.2328 185.104 94.2682 185.175 94.2682 185.281V188.502C94.2682 188.608 94.2328 188.679 94.162 188.75C94.0912 188.821 94.0204 188.856 93.9142 188.856H80.9937C80.8875 188.856 80.8167 188.821 80.7459 188.75C80.6752 188.679 80.6398 188.608 80.6398 188.502V170.06C80.6398 169.953 80.6752 169.883 80.7459 169.812C80.8167 169.741 80.8875 169.706 80.9937 169.706H93.9142C94.0204 169.706 94.0912 169.741 94.162 169.812C94.2328 169.883 94.2682 169.953 94.2682 170.06V173.281C94.2682 173.352 94.2328 173.422 94.162 173.493ZM116.179 181.316L119.401 188.573C119.471 188.75 119.578 188.821 119.79 188.785H123.896C124.073 188.785 124.179 188.715 124.179 188.573C124.179 188.538 124.144 188.467 124.109 188.396L120.498 180.892C120.463 180.821 120.463 180.75 120.569 180.715C121.631 180.29 122.48 179.653 123.082 178.768C123.684 177.883 123.967 176.821 123.967 175.617C123.967 174.484 123.719 173.422 123.224 172.537C122.728 171.652 122.02 170.944 121.1 170.449C120.215 169.953 119.153 169.706 117.949 169.706H109.843C109.737 169.706 109.666 169.741 109.595 169.812C109.524 169.883 109.489 169.953 109.489 170.06V188.502C109.489 188.608 109.524 188.679 109.595 188.75C109.666 188.821 109.737 188.856 109.843 188.856H113.701C113.808 188.856 113.878 188.821 113.949 188.75C114.02 188.679 114.055 188.608 114.055 188.502V181.352C114.055 181.245 114.091 181.21 114.197 181.21H116.002C116.073 181.21 116.144 181.245 116.179 181.316ZM114.055 177.599V173.741C114.055 173.635 114.126 173.599 114.197 173.599H117.241C117.914 173.599 118.445 173.776 118.87 174.166C119.294 174.555 119.507 175.051 119.507 175.688C119.507 176.29 119.294 176.785 118.87 177.175C118.445 177.564 117.914 177.741 117.241 177.741H114.197C114.091 177.741 114.055 177.706 114.055 177.599ZM151.684 188.538L150.976 186.095C150.941 186.024 150.905 185.989 150.834 185.989H144.604C144.533 185.989 144.498 186.024 144.463 186.095L143.755 188.538C143.684 188.715 143.578 188.821 143.365 188.821H139.188C139.082 188.821 139.011 188.785 138.94 188.715C138.87 188.644 138.87 188.573 138.905 188.431L144.746 169.989C144.817 169.812 144.923 169.706 145.1 169.706H150.268C150.445 169.706 150.551 169.812 150.622 169.989L156.498 188.431C156.534 188.467 156.534 188.502 156.534 188.573C156.534 188.75 156.427 188.821 156.25 188.821H152.073C151.861 188.821 151.719 188.715 151.684 188.538ZM145.666 182.52H149.737C149.843 182.52 149.879 182.449 149.843 182.343L147.755 175.334C147.744 175.313 147.737 175.295 147.731 175.281C147.716 175.245 147.709 175.228 147.684 175.228C147.649 175.228 147.613 175.263 147.613 175.334L145.56 182.343C145.56 182.449 145.595 182.52 145.666 182.52ZM171.578 185.777C172.18 186.803 173.029 187.617 174.127 188.184C175.224 188.75 176.498 189.033 177.95 188.963C179.401 188.963 180.675 188.679 181.773 188.148C182.87 187.617 183.72 186.874 184.321 185.883C184.923 184.927 185.242 183.794 185.242 182.485C185.242 182.414 185.206 182.378 185.135 182.308C185.065 182.272 184.994 182.237 184.888 182.237L181.029 182.06C180.817 182.06 180.711 182.131 180.711 182.343C180.711 183.193 180.427 183.865 179.932 184.361C179.436 184.892 178.764 185.139 177.914 185.139C177.065 185.139 176.392 184.856 175.896 184.361C175.365 183.865 175.118 183.193 175.118 182.343V176.148C175.118 175.334 175.401 174.661 175.896 174.131C176.392 173.6 177.065 173.352 177.914 173.352C178.764 173.352 179.436 173.635 179.932 174.131C180.463 174.661 180.711 175.334 180.711 176.184C180.711 176.361 180.817 176.467 181.029 176.467L184.888 176.219C184.994 176.219 185.065 176.219 185.135 176.148C185.206 176.113 185.242 176.042 185.242 175.936C185.242 174.661 184.923 173.564 184.321 172.573C183.72 171.617 182.87 170.838 181.773 170.307C180.675 169.776 179.401 169.493 177.95 169.493C176.498 169.493 175.224 169.812 174.127 170.343C173.029 170.874 172.18 171.688 171.578 172.715C170.976 173.741 170.657 174.945 170.657 176.29V182.166C170.657 183.547 170.976 184.75 171.578 185.777ZM214.481 169.812C214.552 169.883 214.587 169.953 214.587 170.06V173.316C214.587 173.422 214.552 173.493 214.481 173.564C214.41 173.635 214.339 173.67 214.233 173.67H209.454C209.348 173.67 209.313 173.706 209.313 173.812V188.538C209.313 188.644 209.277 188.715 209.206 188.785C209.136 188.856 209.065 188.892 208.959 188.892H205.1C204.994 188.892 204.923 188.856 204.852 188.785C204.782 188.715 204.746 188.644 204.746 188.538V173.812C204.746 173.706 204.711 173.67 204.605 173.67H200.003C199.897 173.67 199.826 173.635 199.755 173.564C199.684 173.493 199.649 173.422 199.649 173.316V170.06C199.649 169.953 199.684 169.883 199.755 169.812C199.826 169.741 199.897 169.706 200.003 169.706H214.198C214.339 169.706 214.41 169.741 214.481 169.812ZM229.631 188.467C229.631 188.573 229.667 188.644 229.738 188.714C229.808 188.785 229.879 188.821 229.985 188.821H233.844C233.95 188.821 234.021 188.785 234.092 188.714C234.162 188.644 234.198 188.573 234.198 188.467V170.024C234.198 169.918 234.162 169.847 234.092 169.776C234.021 169.705 233.95 169.67 233.844 169.67H229.985C229.879 169.67 229.808 169.705 229.738 169.776C229.667 169.847 229.631 169.918 229.631 170.024V188.467ZM254.836 188.538L249.313 170.095L249.278 169.989C249.278 169.812 249.384 169.706 249.561 169.706H253.738C253.951 169.706 254.057 169.812 254.128 169.989L257.278 182.414C257.313 182.484 257.313 182.484 257.349 182.484C257.384 182.484 257.42 182.449 257.42 182.414L260.499 169.989C260.57 169.812 260.676 169.706 260.889 169.706H264.995C265.101 169.706 265.172 169.741 265.243 169.812C265.314 169.883 265.314 169.989 265.278 170.095L259.685 188.538C259.614 188.715 259.508 188.821 259.331 188.821H255.19C255.013 188.821 254.871 188.715 254.836 188.538ZM293.526 173.599C293.632 173.599 293.703 173.564 293.774 173.493L293.88 173.281V170.06C293.88 169.953 293.845 169.883 293.774 169.812C293.703 169.741 293.632 169.706 293.526 169.706H280.606C280.499 169.706 280.429 169.741 280.358 169.812C280.287 169.883 280.252 169.953 280.252 170.06V188.502C280.252 188.608 280.287 188.679 280.358 188.75C280.429 188.821 280.499 188.856 280.606 188.856H293.526C293.632 188.856 293.703 188.821 293.774 188.75C293.845 188.679 293.88 188.608 293.88 188.502V185.281C293.88 185.175 293.845 185.104 293.774 185.033C293.703 184.962 293.632 184.927 293.526 184.927H284.96C284.853 184.927 284.818 184.892 284.818 184.785V181.281C284.818 181.175 284.853 181.139 284.96 181.139H290.446C290.553 181.139 290.623 181.104 290.694 181.033C290.765 180.962 290.8 180.892 290.8 180.785V177.599C290.8 177.493 290.765 177.422 290.694 177.352C290.623 177.281 290.553 177.245 290.446 177.245H284.96C284.853 177.245 284.818 177.21 284.818 177.104V173.741C284.818 173.635 284.853 173.599 284.96 173.599H293.526Z" fill="url(#paint0_linear)"/>
<defs>
<linearGradient id="paint0_linear" x1="193.472" y1="0" x2="193.472" y2="189" gradientUnits="userSpaceOnUse">
<stop stop-color="#FCC65A"/>
<stop offset="1" stop-color="#FB797E"/>
</linearGradient>
</defs>
</svg>
