<svg width="236" height="115" viewBox="0 0 236 115" fill="none" xmlns="http://www.w3.org/2000/svg">
<path fill-rule="evenodd" clip-rule="evenodd" d="M13.1409 38.9786C12.1965 39.583 11.241 40.1945 10.2531 40.7327C10.4901 29.0155 15.5948 19.9046 25.8473 13.766C30.8874 10.7721 36.4444 9.6521 42.2814 9.71671C45.2107 9.73825 47.3215 7.64898 47.3861 4.95663C47.4507 2.30735 45.4692 0.110385 42.7553 0.0242297C30.392 -0.36347 19.9025 3.90122 11.3947 12.8398C3.66224 20.9815 0.32372 30.954 0.108332 41.9819C-0.0407671 49.0641 -0.0040865 56.136 0.0326147 63.2118C0.0489322 66.3577 0.0652538 69.5045 0.0652538 72.6532C0.0652538 73.4071 0.0652538 74.1825 0.151409 74.9364C0.431414 77.6933 2.28376 79.3518 5.04073 79.3303C7.94847 79.3088 9.84389 77.3272 9.86543 74.1179C9.88697 70.6824 9.88697 67.2523 9.88697 63.8223C9.88697 60.3922 9.88697 56.9622 9.90851 53.5267C9.93005 47.9697 13.6778 44.3943 19.3856 44.3943C24.6411 44.3727 27.1396 47.1297 27.2473 53.1175V54.9483V73.0194C27.2473 73.1395 27.2464 73.2605 27.2456 73.382V73.382C27.2421 73.8705 27.2386 74.3673 27.2904 74.8502C27.6134 77.7149 29.5304 79.4164 32.352 79.3303C35.0659 79.2657 36.9613 77.5426 36.9829 74.6994C36.9882 72.5845 37.0138 70.4669 37.0394 68.3487V68.3486V68.3485V68.3484V68.3483V68.3482V68.3481V68.348V68.3479V68.3479V68.3478V68.3477V68.3476V68.3475V68.3473C37.1161 61.9878 37.1929 55.6222 36.7244 49.3051C35.949 38.708 30.3489 33.7325 19.321 35.9726C17.171 36.3996 15.1821 37.6724 13.1409 38.9786ZM214.786 79.481C218.835 79.0502 221.872 76.5948 224.952 73.7517C224.979 74.0358 225.002 74.2613 225.021 74.451L225.021 74.4512C225.049 74.7215 225.069 74.9188 225.082 75.1086C225.34 86.438 217.737 97.9829 207.054 102.592C202.574 104.531 197.9 105.328 193.032 105.328C190.103 105.328 188.035 107.525 188.056 110.217C188.078 112.931 190.189 115.063 193.096 114.999L193.112 114.998C196.144 114.934 199.219 114.868 202.186 114.288C220.365 110.669 233.094 96.4752 235.054 77.2194C235.514 72.7095 235.461 68.1341 235.408 63.5631C235.386 61.7159 235.365 59.8694 235.377 58.0283L235.377 58.0182V58.0173V58.0164V58.0155V58.0146V58.0137V58.0128V58.0119V58.011V58.0101V58.0092V58.0083V58.0074V58.0065V58.0056C235.399 52.2838 235.42 46.5836 235.356 40.8618C235.313 37.4802 233.18 35.4987 230.036 35.714C227.257 35.9079 225.555 37.911 225.534 41.2926C225.516 44.1433 225.524 46.9904 225.532 49.8353V49.8385V49.8416V49.8447V49.8478V49.851V49.8541V49.8572V49.8604V49.8635V49.8666V49.8698V49.8729V49.876V49.8792C225.543 53.9626 225.554 58.0416 225.491 62.1207C225.405 67.0746 221.743 70.4778 216.595 70.6501C211.318 70.8224 208.755 68.4746 208.195 62.8961C208.123 62.1962 208.126 61.4964 208.129 60.7966V60.7961C208.13 60.6561 208.131 60.5161 208.131 60.376C208.131 58.7808 208.132 57.1843 208.133 55.587V55.585V55.583V55.581V55.5789V55.5769C208.137 50.7724 208.141 45.9618 208.109 41.1634C208.066 37.6095 206.192 35.6494 203.069 35.714C200.161 35.7787 198.395 37.8249 198.395 41.2711C198.395 43.1697 198.39 45.0666 198.385 46.9624C198.373 52.0135 198.36 57.0563 198.438 62.0991C198.481 64.5115 198.783 66.9669 199.3 69.3362C200.937 76.724 205.438 80.4933 214.786 79.481ZM158.418 40.237C164.104 35.003 170.48 33.2584 177.674 36.1446C185.169 39.16 189.003 45.1694 190.209 52.8587C191.394 60.3327 190.059 67.3329 184.932 73.1699C178.363 80.6223 168.003 81.6562 159.99 75.8192C159.83 75.7029 159.668 75.5867 159.489 75.4581L159.485 75.4554L159.485 75.4552L159.483 75.4542C159.131 75.2022 158.713 74.9024 158.116 74.4622V81.5485C158.116 82.359 158.119 83.1695 158.121 83.9808V83.9862V83.9877V83.9892V83.9907V83.9922V83.9937V83.9952V83.9967V83.9982V83.9997V84.0012V84.0027V84.0042C158.126 85.6215 158.131 87.2418 158.116 88.8717C158.095 92.641 156.35 94.7734 153.292 94.838C150.125 94.9026 148.338 92.7918 148.316 88.8286C148.302 81.6228 148.307 74.4265 148.311 67.2271V67.2247V67.2223V67.2199V67.2176V67.2152V67.2128V67.2104V67.208V67.2057V67.2033V67.2009V67.1985V67.1789C148.314 63.5699 148.316 59.9602 148.316 56.348C148.316 51.1572 148.316 45.9879 148.338 40.797C148.359 38.4277 149.393 36.5969 151.676 35.8646C153.593 35.2615 155.51 35.5631 156.846 37.2646C157.254 37.8141 157.552 38.4466 157.872 39.1258L157.872 39.1263C158.042 39.4853 158.217 39.8573 158.418 40.237ZM181.206 57.2096C181.195 56.9996 181.186 56.7897 181.176 56.5797C181.148 55.9496 181.12 55.3196 181.055 54.6896C180.431 48.8525 176.166 44.4155 170.523 43.7478C165.31 43.1447 160.4 46.3109 158.569 51.6957C157.018 56.2404 157.276 60.7204 159.667 64.942C163.652 71.9637 173.538 72.5883 178.341 66.1698C180.366 63.542 181.249 60.5266 181.206 57.2096ZM119.648 34.8738C115.082 35.0246 111.42 37.2862 108.038 40.3878C107.414 38.1046 106.488 36.2308 104.075 35.7354C100.521 35.0461 98.1091 37.2646 98.1091 41.2924C98.0947 51.8608 98.0995 62.4292 98.1043 72.9976C98.1067 78.2818 98.1091 83.566 98.1091 88.8502C98.1091 89.0224 98.096 89.2029 98.0828 89.3834C98.0484 89.8574 98.014 90.3319 98.2168 90.6595C98.3527 90.8721 98.4881 91.091 98.6249 91.3121C99.333 92.4567 100.077 93.6601 101.124 94.3641C102.675 95.398 104.721 95.118 105.949 93.6749C106.897 92.5549 107.672 90.9395 107.737 89.4964C107.893 85.9465 107.868 82.3967 107.843 78.6923V78.6921V78.692V78.6918V78.6916V78.6915V78.6913V78.6911V78.691V78.6908V78.6907V78.6905V78.6903L107.843 78.6886C107.833 77.2695 107.823 75.8277 107.823 74.3545C108.512 74.8928 108.857 75.1513 109.201 75.4097L109.202 75.4099C117.903 82.1731 129.728 80.6654 135.931 71.576C141.704 63.1113 141.984 54.0003 137.224 44.9755C133.584 38.04 127.553 34.6369 119.648 34.8738ZM107.564 58.9962L107.564 58.9961L107.564 58.996L107.564 58.9956L107.564 58.9949C107.501 58.604 107.447 58.2663 107.392 58.0065C107.5 53.3326 108.448 49.951 111.097 47.2371C116.417 41.7232 125.183 42.757 128.996 49.4556C131.58 53.9788 131.688 58.7819 129.685 63.542C127.66 68.3667 123.676 70.7791 118.485 70.5852C113.94 70.4129 109.891 67.3329 108.362 62.6374C107.943 61.3516 107.726 59.999 107.564 58.9962ZM77.7564 39.419C78.4887 36.9205 79.6733 34.982 82.4734 34.8527C85.575 34.702 87.6642 36.6189 87.6642 39.8713C87.7073 51.0643 87.6858 62.2574 87.6643 73.4719L87.6642 73.4934C87.6642 76.3796 86.0919 78.3181 83.5719 78.7274C81.0949 79.1366 79.0487 77.7581 78.0579 75.0227C77.0251 75.472 76.0049 75.9799 74.9861 76.487L74.9859 76.4871L74.9857 76.4872L74.9856 76.4873L74.9854 76.4873L74.9853 76.4874L74.9851 76.4875L74.9849 76.4875L74.9848 76.4876L74.9846 76.4877L74.9845 76.4877L74.9843 76.4878C72.7317 77.609 70.4862 78.7267 68.1285 79.2012C59.9868 80.8166 52.2113 76.8104 48.3558 69.2503C44.1127 60.9363 44.2419 52.4284 48.8512 44.3083C54.3221 34.702 65.9962 32.0096 75.3871 37.8682C75.902 38.1771 76.4068 38.5161 76.9564 38.8853L76.9569 38.8857L76.9572 38.8858C77.2121 39.0571 77.4767 39.2348 77.7564 39.419ZM54.8603 58.7827L54.8603 58.7829C54.9688 59.6478 55.1029 60.7175 55.3775 61.7548C56.7775 67.0964 60.8484 70.4565 65.9531 70.5857C71.6609 70.7365 75.8825 67.7641 77.5841 62.2286C78.8979 57.9855 78.6825 53.7854 76.5933 49.8222C72.8886 42.779 63.713 41.5728 58.3068 47.3883C55.7006 50.1669 54.8606 53.57 54.7313 57.8347C54.7753 58.1046 54.8156 58.4257 54.8602 58.7816L54.8603 58.7821L54.8603 58.7825L54.8603 58.7827ZM0.0012556 114.676C0.0012556 114.741 0.0227945 114.784 0.0658722 114.827C0.087411 114.87 0.152028 114.892 0.195105 114.892H2.56438C2.629 114.892 2.67207 114.87 2.71515 114.827C2.75823 114.784 2.77977 114.741 2.77977 114.676V103.455C2.77977 103.39 2.75823 103.347 2.71515 103.304C2.67207 103.261 2.629 103.239 2.56438 103.239H0.216644C0.152028 103.239 0.10895 103.261 0.0658722 103.304C0.0227945 103.347 0.0012556 103.39 0.0012556 103.455V114.676ZM19.0199 103.325C19.063 103.282 19.1061 103.26 19.1707 103.26H21.5184C21.583 103.26 21.6261 103.282 21.6692 103.325C21.7123 103.368 21.7338 103.411 21.7338 103.476V114.698C21.7338 114.762 21.7123 114.805 21.6692 114.848C21.6261 114.891 21.583 114.913 21.5184 114.913H19.2569C19.1492 114.913 19.063 114.87 19.0199 114.784L15.2075 108.451C15.186 108.408 15.1645 108.408 15.1429 108.408C15.1214 108.408 15.0999 108.43 15.0999 108.473L15.1214 114.719C15.1214 114.784 15.0999 114.827 15.0568 114.87C15.0137 114.913 14.9706 114.934 14.906 114.934H12.5798C12.5152 114.934 12.4721 114.913 12.429 114.87C12.386 114.827 12.3644 114.784 12.3644 114.719V103.497C12.3644 103.433 12.386 103.39 12.429 103.347C12.4721 103.303 12.5152 103.282 12.5798 103.282H14.8629C14.9706 103.282 15.0568 103.325 15.0999 103.411L18.9122 109.744C18.9338 109.787 18.9553 109.787 18.9768 109.787C18.9984 109.787 19.0199 109.765 19.0199 109.722L18.9553 103.454C18.9553 103.411 18.9768 103.368 19.0199 103.325ZM39.9353 103.476C39.9353 103.411 39.9138 103.368 39.8707 103.325C39.8492 103.282 39.7845 103.26 39.7199 103.26H31.0828C31.0182 103.26 30.9751 103.282 30.9321 103.325C30.889 103.368 30.8675 103.411 30.8675 103.476V105.457C30.8675 105.522 30.889 105.565 30.9321 105.608C30.9751 105.651 31.0182 105.673 31.0828 105.673H33.8829C33.9475 105.673 33.969 105.694 33.969 105.759V114.719C33.969 114.784 33.9906 114.827 34.0337 114.87C34.0767 114.913 34.1198 114.934 34.1844 114.934H36.5322C36.5968 114.934 36.6399 114.913 36.6829 114.87C36.726 114.827 36.7476 114.784 36.7476 114.719V105.759C36.7476 105.694 36.7691 105.673 36.8337 105.673H39.7199C39.7845 105.673 39.8276 105.651 39.8707 105.608C39.9138 105.565 39.9353 105.522 39.9353 105.457V103.476ZM57.2951 105.565C57.252 105.608 57.2089 105.63 57.1443 105.63H51.9319C51.8673 105.63 51.8458 105.651 51.8458 105.716V107.762C51.8458 107.827 51.8673 107.848 51.9319 107.848H55.2704C55.3351 107.848 55.3781 107.87 55.4212 107.913C55.4643 107.956 55.4858 107.999 55.4858 108.064V110.002C55.4858 110.067 55.4643 110.11 55.4212 110.153C55.3781 110.196 55.3351 110.217 55.2704 110.217H51.9319C51.8673 110.217 51.8458 110.239 51.8458 110.304V112.436C51.8458 112.501 51.8673 112.522 51.9319 112.522H57.1443C57.2089 112.522 57.252 112.544 57.2951 112.587C57.3382 112.63 57.3597 112.673 57.3597 112.738V114.698C57.3597 114.762 57.3382 114.805 57.2951 114.848C57.252 114.891 57.2089 114.913 57.1443 114.913H49.2826C49.218 114.913 49.175 114.891 49.1319 114.848C49.0888 114.805 49.0673 114.762 49.0673 114.698V103.476C49.0673 103.411 49.0888 103.368 49.1319 103.325C49.175 103.282 49.218 103.26 49.2826 103.26H57.1443C57.2089 103.26 57.252 103.282 57.2951 103.325C57.3382 103.368 57.3597 103.411 57.3597 103.476V105.436C57.3597 105.479 57.3382 105.522 57.2951 105.565ZM70.6914 110.325L72.6514 114.741C72.6945 114.848 72.7591 114.891 72.8883 114.87H75.3868C75.4945 114.87 75.5591 114.827 75.5591 114.741C75.5591 114.719 75.5376 114.676 75.5161 114.633L73.3191 110.067C73.2976 110.024 73.2976 109.981 73.3622 109.959C74.0083 109.701 74.5253 109.313 74.8914 108.774C75.2576 108.236 75.4299 107.59 75.4299 106.857C75.4299 106.168 75.2791 105.522 74.9776 104.984C74.6761 104.445 74.2453 104.014 73.6853 103.713C73.1468 103.411 72.5006 103.26 71.7683 103.26H66.8359C66.7713 103.26 66.7282 103.282 66.6851 103.325C66.6421 103.368 66.6205 103.411 66.6205 103.476V114.698C66.6205 114.762 66.6421 114.805 66.6851 114.848C66.7282 114.891 66.7713 114.913 66.8359 114.913H69.1836C69.2483 114.913 69.2913 114.891 69.3344 114.848C69.3775 114.805 69.399 114.762 69.399 114.698V110.347C69.399 110.282 69.4206 110.261 69.4852 110.261H70.5837C70.6267 110.261 70.6698 110.282 70.6914 110.325ZM69.399 108.064V105.716C69.399 105.651 69.4421 105.63 69.4852 105.63H71.3375C71.7468 105.63 72.0698 105.737 72.3283 105.974C72.5868 106.211 72.716 106.513 72.716 106.9C72.716 107.267 72.5868 107.568 72.3283 107.805C72.0698 108.042 71.7468 108.15 71.3375 108.15H69.4852C69.4206 108.15 69.399 108.128 69.399 108.064ZM92.2939 114.719L91.8632 113.233C91.8416 113.19 91.8201 113.168 91.777 113.168H87.9862C87.9431 113.168 87.9216 113.19 87.9 113.233L87.4692 114.719C87.4262 114.827 87.3615 114.891 87.2323 114.891H84.6907C84.6261 114.891 84.583 114.87 84.5399 114.827C84.4969 114.784 84.4969 114.741 84.5184 114.654L88.0723 103.433C88.1154 103.325 88.18 103.26 88.2877 103.26H91.4324C91.5401 103.26 91.6047 103.325 91.6478 103.433L95.2232 114.654C95.2448 114.676 95.2448 114.698 95.2448 114.741C95.2448 114.848 95.1801 114.891 95.0724 114.891H92.5309C92.4016 114.891 92.3155 114.827 92.2939 114.719ZM88.6323 111.057H91.1093C91.1739 111.057 91.1954 111.014 91.1739 110.95L89.9031 106.685C89.8968 106.672 89.8923 106.662 89.8887 106.653C89.8797 106.631 89.8753 106.62 89.86 106.62C89.8385 106.62 89.817 106.642 89.817 106.685L88.5677 110.95C88.5677 111.014 88.5893 111.057 88.6323 111.057ZM104.4 113.039C104.766 113.664 105.283 114.159 105.951 114.504C106.618 114.848 107.394 115.021 108.277 114.978C109.16 114.978 109.935 114.805 110.603 114.482C111.271 114.159 111.788 113.707 112.154 113.104C112.52 112.522 112.714 111.833 112.714 111.036C112.714 110.993 112.692 110.971 112.649 110.928C112.606 110.907 112.563 110.885 112.499 110.885L110.151 110.778C110.022 110.778 109.957 110.821 109.957 110.95C109.957 111.467 109.785 111.876 109.483 112.178C109.182 112.501 108.772 112.651 108.255 112.651C107.738 112.651 107.329 112.479 107.028 112.178C106.705 111.876 106.554 111.467 106.554 110.95V107.181C106.554 106.685 106.726 106.276 107.028 105.953C107.329 105.63 107.738 105.479 108.255 105.479C108.772 105.479 109.182 105.651 109.483 105.953C109.806 106.276 109.957 106.685 109.957 107.202C109.957 107.31 110.022 107.374 110.151 107.374L112.499 107.224C112.563 107.224 112.606 107.224 112.649 107.181C112.692 107.159 112.714 107.116 112.714 107.051C112.714 106.276 112.52 105.608 112.154 105.005C111.788 104.424 111.271 103.95 110.603 103.627C109.935 103.304 109.16 103.131 108.277 103.131C107.394 103.131 106.618 103.325 105.951 103.648C105.283 103.971 104.766 104.467 104.4 105.091C104.034 105.716 103.84 106.448 103.84 107.267V110.842C103.84 111.682 104.034 112.415 104.4 113.039ZM130.505 103.325C130.548 103.368 130.569 103.411 130.569 103.476V105.457C130.569 105.522 130.548 105.565 130.505 105.608C130.462 105.651 130.418 105.673 130.354 105.673H127.446C127.382 105.673 127.36 105.694 127.36 105.759V114.719C127.36 114.784 127.338 114.827 127.295 114.87C127.252 114.913 127.209 114.934 127.145 114.934H124.797C124.732 114.934 124.689 114.913 124.646 114.87C124.603 114.827 124.581 114.784 124.581 114.719V105.759C124.581 105.694 124.56 105.673 124.495 105.673H121.695C121.631 105.673 121.588 105.651 121.544 105.608C121.501 105.565 121.48 105.522 121.48 105.457V103.476C121.48 103.411 121.501 103.368 121.544 103.325C121.588 103.282 121.631 103.26 121.695 103.26H130.332C130.418 103.26 130.462 103.282 130.505 103.325ZM139.725 114.676C139.725 114.741 139.746 114.784 139.789 114.827C139.832 114.87 139.875 114.891 139.94 114.891H142.288C142.352 114.891 142.395 114.87 142.438 114.827C142.482 114.784 142.503 114.741 142.503 114.676V103.454C142.503 103.39 142.482 103.346 142.438 103.303C142.395 103.26 142.352 103.239 142.288 103.239H139.94C139.875 103.239 139.832 103.26 139.789 103.303C139.746 103.346 139.725 103.39 139.725 103.454V114.676ZM155.059 114.719L151.699 103.497L151.677 103.433C151.677 103.325 151.742 103.26 151.849 103.26H154.391C154.52 103.26 154.585 103.325 154.628 103.433L156.545 110.993C156.566 111.036 156.566 111.036 156.588 111.036C156.609 111.036 156.631 111.014 156.631 110.993L158.505 103.433C158.548 103.325 158.613 103.26 158.742 103.26H161.24C161.305 103.26 161.348 103.282 161.391 103.325C161.434 103.368 161.434 103.433 161.413 103.497L158.009 114.719C157.966 114.827 157.902 114.891 157.794 114.891H155.274C155.166 114.891 155.08 114.827 155.059 114.719ZM178.602 105.63C178.667 105.63 178.71 105.608 178.753 105.565L178.817 105.436V103.476C178.817 103.411 178.796 103.368 178.753 103.325C178.71 103.282 178.667 103.26 178.602 103.26H170.74C170.676 103.26 170.633 103.282 170.59 103.325C170.547 103.368 170.525 103.411 170.525 103.476V114.698C170.525 114.762 170.547 114.805 170.59 114.848C170.633 114.891 170.676 114.913 170.74 114.913H178.602C178.667 114.913 178.71 114.891 178.753 114.848C178.796 114.805 178.817 114.762 178.817 114.698V112.738C178.817 112.673 178.796 112.63 178.753 112.587C178.71 112.544 178.667 112.522 178.602 112.522H173.39C173.325 112.522 173.303 112.501 173.303 112.436V110.304C173.303 110.239 173.325 110.217 173.39 110.217H176.728C176.793 110.217 176.836 110.196 176.879 110.153C176.922 110.11 176.944 110.067 176.944 110.002V108.064C176.944 107.999 176.922 107.956 176.879 107.913C176.836 107.87 176.793 107.848 176.728 107.848H173.39C173.325 107.848 173.303 107.827 173.303 107.762V105.716C173.303 105.651 173.325 105.63 173.39 105.63H178.602Z" fill="white"/>
</svg>
