<svg width="271" height="155" viewBox="0 0 271 155" fill="none" xmlns="http://www.w3.org/2000/svg">
<path d="M200.353 139.796C200.841 141.866 200.232 143.326 199.014 144.666C196.821 146.978 194.873 149.535 191.341 150.022C189.757 150.265 188.418 151.604 186.956 152.578C186.225 153.065 185.495 153.552 184.764 153.917C184.033 154.404 183.181 154.526 182.45 153.796C181.841 153.065 181.719 151.726 182.45 151.117C183.181 150.265 184.155 149.657 185.007 148.804C186.713 147.222 188.905 146.005 189.392 143.326C191.584 140.527 193.777 137.727 197.918 137.97C198.405 137.97 199.014 137.727 199.379 137.483C203.398 135.17 207.783 134.562 212.411 134.562C215.821 134.562 219.11 134.927 222.52 135.536C227.879 136.509 233.359 137.118 238.84 137.727C242.859 138.092 246.757 136.996 250.289 135.292C253.334 133.953 255.891 131.518 258.084 128.84C260.032 126.284 261.981 123.606 263.686 120.928C264.66 119.223 265.269 117.276 265.757 115.45C268.071 106.928 266.487 98.7723 262.712 90.8596C260.519 86.2338 257.596 82.2166 253.577 78.8081C249.923 75.7648 244.808 75.2778 240.18 77.8342C235.552 80.3906 232.872 84.0426 231.654 89.2771C230.68 93.5378 230.071 97.9201 229.462 102.181C228.122 111.067 221.302 114.719 214.116 115.206C204.616 115.815 196.821 112.041 191.219 104.372C189.757 102.424 188.539 100.477 187.078 98.5288C185.007 95.6072 182.45 93.2943 178.918 91.9552C177.943 93.903 177.213 95.729 176.238 97.5549C174.777 100.355 172.584 102.546 169.418 103.52C165.764 104.737 161.867 103.398 159.796 100.233C158.335 97.9201 158.335 95.242 160.283 93.2943C163.572 90.0075 167.469 87.938 172.219 87.8163C173.437 87.8163 174.655 87.8163 175.873 87.8163C176.725 82.2166 172.463 78.3212 167.835 77.469C161.501 76.2517 155.533 77.3473 150.54 82.0949C148.104 84.4078 146.155 86.8425 144.816 89.764C142.867 94.1464 141.04 98.5288 140.187 103.276C139.335 107.415 138.239 111.554 136.046 115.206C132.514 121.171 127.277 124.701 120.335 125.31C115.707 125.797 111.079 125.188 106.816 122.875C105.72 122.267 104.502 121.902 103.406 121.415C98.4122 118.858 98.4122 118.736 92.6879 112.163C91.1046 110.337 89.7648 108.389 87.329 107.294C85.9893 107.415 84.7713 108.998 83.0662 108.267C81.6047 107.659 80.1432 107.415 78.438 107.05C77.0983 109.12 75.515 110.946 72.8355 111.189C72.4701 111.189 71.983 111.432 71.6176 111.676C67.842 113.867 63.9446 114.111 59.8036 113.137C56.7588 112.406 53.7139 112.285 50.6691 111.676C45.1884 110.58 39.9513 108.998 35.3231 106.076C32.1565 104.129 30.5732 101.085 30.2078 97.1897C26.554 94.5116 23.022 91.8335 19.3682 89.2771C16.2015 87.2076 13.7657 84.5295 11.4516 81.7297C7.3106 76.3734 4.50933 70.4085 2.43884 63.8349C0.611938 57.9918 -0.362403 52.0269 0.124771 45.9402C0.490152 41.4361 1.4645 37.0537 2.31706 32.6713C2.92603 29.7498 4.63114 27.1934 6.33625 24.8804C8.65033 21.7154 11.4516 18.9155 14.0092 15.8722C17.4195 11.7333 21.804 8.93345 26.4322 6.62053C31.6693 3.9424 37.15 1.75121 42.9961 0.655618C48.2332 -0.318244 53.3486 0.046954 58.5857 0.168687C65.1625 0.412152 71.1304 2.60334 76.9765 5.64666C84.1623 9.42038 89.643 14.8984 94.5148 21.1067C95.1238 21.8371 95.3673 22.811 95.9763 23.6631C96.4635 24.3935 96.9507 25.0022 97.316 25.4891C97.6814 25.6108 97.925 25.7326 98.0468 25.7326C102.797 24.637 106.085 26.5847 108.765 30.3584C111.201 33.7669 113.515 37.2972 115.341 41.0709C117.047 44.3577 117.656 48.0097 118.265 51.5399C119.117 56.4092 115.342 63.9567 111.201 66.5131C108.643 68.0956 105.842 69.5564 103.284 71.2607C102.431 71.8693 101.579 71.991 100.483 71.7476C97.925 71.1389 95.6109 70.1651 93.5404 68.0956C87.5726 62.009 82.7008 55.1919 78.0727 48.1314C76.0022 44.9664 75.3932 41.3144 74.7842 37.7841C74.2971 35.3495 76.124 32.6713 78.6816 31.454C80.0214 30.8454 81.4829 30.2367 83.0662 29.5063C80.8739 25.4891 78.1945 22.3241 74.7842 19.8894C68.451 15.2636 61.0216 13.3158 53.4704 12.7072C47.3807 12.2202 41.5346 13.9245 35.8103 16.1157C30.695 18.0634 26.554 21.2285 22.7784 25.1239C20.3425 27.5586 18.5156 30.3584 16.6887 33.1583C15.4708 34.9843 14.8618 37.2972 14.3746 39.3667C12.9131 45.3316 12.6695 51.2965 14.2528 57.2614C14.74 58.9656 15.4708 60.6699 16.2015 62.3742C18.5156 66.8783 20.8297 71.3824 23.7527 75.5213C25.7014 78.3212 28.2591 80.3906 30.695 82.8253C31.4257 81.6079 32.1565 80.6341 32.6437 79.4167C33.618 76.7386 35.8103 75.643 38.3679 74.9126C43.6051 73.2084 48.964 73.9388 54.2011 74.9126C56.1498 75.2778 57.9767 75.8865 59.9254 76.3734C65.0407 77.956 69.9125 80.1471 74.5406 82.7035C77.8291 84.5295 80.0214 87.4511 81.3611 90.9814C82.0918 93.1726 81.9701 95.1203 80.6303 97.068C80.1432 97.6767 79.656 98.4071 79.2906 98.894C80.0214 100.477 81.2393 100.598 82.3354 100.598C84.8931 100.72 87.0854 100.963 87.8161 104.007C87.9379 104.25 88.4251 104.494 88.7905 104.737C91.9571 106.32 94.5148 108.876 96.9507 111.432C100.97 115.693 105.598 118.98 111.201 120.928C114.489 122.023 117.899 122.754 121.188 122.023C125.572 121.171 129.348 118.858 131.784 114.963C133.611 112.163 135.072 109.12 135.681 105.711C136.777 99.9896 138.604 94.5116 141.04 89.2771C143.232 84.6513 146.277 80.6341 150.54 77.7125C151.027 77.3473 151.514 76.9821 152.001 76.8604C156.508 75.1561 161.136 73.6953 166.008 74.4257C169.661 75.0344 172.95 76.6169 175.751 79.1733C177.091 80.3906 177.943 82.0949 178.309 83.9209C178.552 85.3817 179.04 86.9642 179.527 88.7902C180.014 89.0336 180.866 89.3988 181.719 89.8858C184.642 91.7118 187.2 93.6595 189.027 96.7028C192.193 101.572 196.091 105.833 201.084 108.876C206.078 111.919 211.558 113.015 217.283 111.189C222.642 109.606 225.686 106.076 226.174 100.233C226.539 95.3637 227.757 90.4944 228.853 85.7469C229.218 84.2861 229.949 82.8253 230.802 81.6079C234.943 76.0082 240.545 73.0866 247.488 73.3301C251.994 73.4518 255.769 75.8865 258.814 79.1733C263.199 84.0426 266.366 89.6423 268.314 95.9724C269.289 98.894 270.019 101.937 270.141 104.981C270.263 111.311 269.776 117.519 266.366 123.241C263.686 127.623 260.519 131.397 256.744 134.805C252.725 138.457 247.975 140.405 242.616 140.892C239.084 141.257 235.674 141.135 232.142 140.405C227.635 139.553 223.007 138.822 218.379 138.092C212.289 137.118 206.565 137.727 200.353 139.796ZM108.521 64.0784C109.617 63.1045 110.592 62.4959 111.201 61.6438C111.809 60.7916 112.54 59.696 112.662 58.7222C112.784 56.6527 113.027 54.5833 111.931 52.5138C110.592 49.5922 109.374 46.5489 108.034 43.6273C105.354 37.9059 101.335 33.28 97.0725 28.7759C96.8289 28.5324 96.4635 28.1672 96.0981 28.0455C94.5148 27.4368 93.784 25.976 92.9315 24.7587C88.7905 19.0373 84.4059 13.5593 78.1945 10.029C73.3227 7.22919 68.451 4.3076 62.7267 3.57721C59.4382 3.21201 56.028 2.96854 52.6178 2.96854C50.5473 2.96854 48.355 3.09027 46.2845 3.33374C38.0026 4.42934 30.5732 7.71612 23.5091 11.9768C21.9258 12.9506 20.4643 13.9245 19.1246 15.2636C15.2272 18.9155 12.0605 23.1762 8.65032 27.3151C4.75293 32.0627 3.65679 37.6624 3.53499 43.5056C3.4132 50.4443 4.26576 57.2614 6.33625 63.8349C8.16315 69.6781 11.208 74.9126 14.9836 79.6602C18.7592 84.2861 23.022 88.6684 28.0155 92.077C28.6245 92.4422 29.1116 92.9291 29.5988 93.416C31.3039 95.242 33.3744 96.2159 35.6885 96.9463C40.9256 98.5288 45.9192 100.72 51.2781 102.059C57.4895 103.642 63.701 105.589 69.9125 107.415C72.9573 108.267 74.7842 107.294 75.7586 104.25C76.6111 101.694 76.124 99.3809 73.9317 97.7984C72.2266 96.5811 70.3997 95.4855 68.451 94.7551C65.2843 93.5378 62.1177 92.4422 58.8293 91.7118C51.2781 90.0075 43.8487 87.8163 35.9321 88.1815C35.0795 88.1815 34.227 88.0598 33.3744 87.938C32.8872 87.8163 32.1565 87.8163 31.7911 87.5728C30.086 86.3555 28.3809 85.1382 26.7976 83.6774C22.2912 79.4167 18.272 74.7909 15.5926 68.9477C14.131 65.7827 12.5477 62.6176 11.3298 59.3308C9.50287 54.8267 9.62468 49.9574 9.99006 45.2098C10.4772 37.9059 12.5477 31.2106 17.663 25.6108C18.1502 25.1239 18.5156 24.5153 19.0028 24.0283C22.413 19.7677 26.6758 16.4809 31.4257 14.168C35.4449 12.2202 39.9513 11.2464 44.214 10.029C45.7974 9.54211 47.5025 9.42038 49.2076 9.29865C57.3678 8.93345 65.1625 10.8812 72.4701 14.4114C76.6111 16.3592 80.0214 19.2807 82.9444 22.811C84.7713 25.0022 86.2328 27.3151 86.5982 30.2367C86.5982 30.4802 86.8418 30.7236 86.9636 30.9671C90.3738 37.6624 93.5404 44.3577 97.8032 50.4443C100.483 54.2181 103.162 57.9918 105.842 61.7655C106.694 62.4959 107.668 63.2263 108.521 64.0784ZM33.9834 85.1382C39.5859 85.0165 44.4576 85.0165 49.3294 86.2338C54.2011 87.4511 59.1946 88.5467 64.0664 89.764C68.8163 90.9814 73.2009 92.9291 77.5855 95.242C78.0727 91.2248 76.2457 87.5728 72.8355 85.6251C71.0086 84.5295 69.0599 83.6774 67.233 82.8253C61.3869 80.0254 55.0537 78.5646 48.7204 77.2256C45.432 76.4952 42.2653 77.1038 39.0987 77.7125C38.2462 77.8342 37.2718 78.5646 36.7846 79.4167C35.8103 80.9993 35.0795 82.8253 33.9834 85.1382ZM104.624 65.9044C104.38 65.2957 104.136 64.6871 103.893 64.3219C101.457 60.7916 99.0211 57.1396 96.3417 53.7311C92.6879 48.9835 90.1302 43.749 87.9379 38.2711C87.0854 36.0799 86.2328 33.8887 85.3803 31.454C81.9701 32.3062 79.1688 33.6452 77.7073 36.4451C78.438 38.5145 78.9252 40.4622 79.656 42.2882C80.1432 43.5056 80.6303 44.6012 81.2393 45.6968C83.3098 49.227 85.7457 52.5138 88.0597 55.8006C90.252 59.0874 92.8097 62.009 95.4891 64.9305C96.3417 65.9044 97.316 66.7565 98.2904 67.4869C99.5083 68.4608 100.848 68.5825 102.188 67.7304C103.04 67.1217 103.771 66.5131 104.624 65.9044ZM175.508 91.4683C173.193 90.251 171.367 90.9814 169.418 91.4683C166.738 92.1987 164.546 93.5378 162.597 95.3637C161.501 96.3376 161.501 97.5549 162.354 98.7723C164.181 101.45 166.86 102.059 169.661 100.355C172.95 98.4071 174.777 95.4855 175.508 91.4683ZM66.0151 110.58C56.8806 106.563 46.8935 105.102 37.8808 101.085C36.9064 100.598 35.8103 100.477 34.8359 100.233C34.4706 101.572 35.5667 101.816 36.1757 102.303C39.9513 104.981 44.3358 106.685 48.8422 107.78C53.105 108.754 57.3677 109.485 61.6305 110.215C62.9702 110.459 64.5536 110.459 66.0151 110.58ZM101.579 29.0194C107.303 35.7147 112.418 42.6534 116.072 50.6878C115.098 47.7662 114.002 44.9664 112.906 42.1665C111.444 38.6363 108.886 35.7147 106.694 32.7931C105.233 30.9671 103.771 29.628 101.579 29.0194ZM197.309 139.553C194.873 141.014 192.802 142.353 191.584 144.666C191.219 145.396 191.219 146.126 191.95 146.492C192.315 146.735 193.046 146.735 193.411 146.613C195.725 145.518 197.43 143.692 198.405 141.257C198.161 140.77 197.918 140.405 197.309 139.553ZM79.8996 104.372C83.3098 105.589 83.3098 105.589 84.4059 103.52C83.0662 103.033 81.8483 102.668 80.5085 102.181C80.3867 102.181 80.2649 102.303 80.0214 102.546C80.1432 103.155 80.0214 103.885 79.8996 104.372ZM187.443 149.413C188.174 149.17 188.539 149.17 188.661 149.048C188.905 148.804 188.905 148.439 189.027 148.074C188.783 148.196 188.418 148.318 188.174 148.439C187.93 148.561 187.809 148.804 187.443 149.413Z" fill="white"/>
</svg>
