<svg width="42" height="61" viewBox="0 0 42 61" fill="none" xmlns="http://www.w3.org/2000/svg">
<path d="M23.0651 43.9857C22.3344 45.2031 21.7254 46.1769 21.1164 47.0291C18.9241 50.5593 16.6101 54.0896 14.5396 57.7416C13.3216 59.9328 11.8601 60.298 9.42422 60.1762C5.52683 59.9328 3.57814 57.8633 2.23841 54.6982C1.62944 53.2374 1.50765 51.6549 2.23841 50.1941C3.33455 48.1247 4.43069 46.0552 5.77042 43.9857C7.11015 41.7945 8.44988 39.7251 10.0332 37.4122C8.81526 36.6818 7.7191 36.0731 6.74475 35.4644C4.79605 34.2471 2.84738 33.1515 1.14227 31.8125C-0.441046 30.5951 -0.319252 28.6474 1.14227 27.4301C6.62299 22.8043 11.9819 18.1784 17.9498 14.1612C23.6741 10.2658 29.3984 6.49204 35.1227 2.71833C36.2188 1.98793 37.0714 1.13582 38.1675 0.527152C40.1162 -0.690176 41.9431 0.283664 41.9431 2.59659C41.9431 7.70936 42.3085 12.9439 40.9688 18.0567C40.7252 19.1523 40.7252 20.2479 40.6034 21.3435C39.6291 28.404 38.2893 35.4644 36.2188 42.2815C35.7317 43.6205 35.1227 44.8379 34.0266 45.8117C32.6868 47.0291 31.2253 47.516 29.3984 46.6639C27.4497 45.69 25.501 44.9596 23.0651 43.9857ZM37.8021 4.7878C34.1483 7.70939 30.7381 10.3875 27.2061 12.8222C21.7254 16.5959 16.2447 20.7348 10.8858 24.6302C9.91141 25.3606 8.81524 26.091 7.96269 26.9431C6.98834 27.7953 6.01399 28.8909 4.91784 29.9865C6.01399 30.8386 6.86657 31.4473 7.71912 32.0559C8.81526 32.7863 9.91141 33.395 10.8858 34.1254C12.8345 35.7079 13.078 36.9252 12.3473 39.2382C11.2511 42.5249 9.42424 45.3248 7.84092 48.2464C7.23195 49.2202 6.74476 50.1941 6.37938 51.2897C5.77042 53.1157 6.50118 54.82 8.20629 55.4286C9.05884 55.7938 10.0332 55.9155 11.1293 56.159C14.0524 52.2636 17.0972 48.6116 19.2895 44.2292C20.751 41.1859 23.1869 40.4555 26.11 40.5772C26.9625 40.5772 27.6933 40.9424 28.5458 41.1859C29.5202 41.4294 30.3727 41.7945 31.4689 42.1597C31.9561 40.9424 32.4432 39.9686 32.8086 38.873C33.5394 35.7079 34.2701 32.5429 35.0009 29.3778C36.4624 22.0738 37.6803 14.7699 38.5329 7.34419C38.1675 6.73553 37.9239 6.00513 37.8021 4.7878Z" fill="white"/>
</svg>
