<svg width="54" height="102" viewBox="0 0 54 102" fill="none" xmlns="http://www.w3.org/2000/svg">
<path d="M20.5718 21.8213C21.5461 19.0215 22.6423 16.3433 23.373 13.6652C24.4692 10.135 26.6615 7.3351 28.7319 4.29178C29.9499 2.46579 31.8986 1.97886 33.7255 1.24846C36.5267 0.0311357 39.5716 -0.455794 42.6164 0.518069C47.8535 2.34406 51.0202 5.99604 52.1163 11.2306C53.456 17.3172 53.4561 23.5256 51.2638 29.4905C51.2638 29.6122 51.142 29.7339 51.142 29.8557C50.533 35.0902 48.2189 39.9595 46.5138 44.9506C45.9048 46.7765 45.5395 48.7243 45.4177 50.7937C45.2959 53.4718 44.8087 56.15 43.9561 58.7064C42.9818 61.5062 42.251 64.3061 41.6421 67.1059C40.4241 72.9491 38.3536 78.5488 35.6742 83.905C34.4562 86.218 33.3601 88.5309 32.0204 90.7221C30.1935 93.7654 27.7576 96.3218 24.7128 98.1478C20.45 100.704 15.9436 101.921 10.9501 100.339C10.3411 100.096 9.48855 99.9738 9.00138 99.4868C6.07833 96.8087 3.03349 94.2523 1.69376 90.2352C-0.254937 84.6354 -0.49852 79.0357 0.841209 73.3143C2.66811 65.4017 4.98219 57.489 7.05268 49.5764C8.02703 45.6809 9.12317 41.6638 9.97573 37.6466C10.9501 33.3859 12.2898 29.3687 13.7513 25.2298C15.3346 21.5778 16.4308 20.9692 20.5718 21.8213ZM17.7705 23.6473C17.1616 24.7429 16.6744 25.3516 16.4308 26.082C14.6039 31.1947 12.8988 36.4293 11.8026 41.9072C11.3155 44.0984 10.9501 46.2896 10.2193 48.3591C7.78344 55.5413 6.32192 62.967 4.25143 70.271C2.9117 74.8968 2.66811 79.4009 2.78991 84.1485C2.78991 85.1224 2.9117 86.0962 3.39887 86.8266C4.7386 89.2613 5.95654 91.8177 7.78344 93.8871C8.75779 94.9827 9.73214 95.9566 10.8283 96.8087C12.5334 98.1478 14.6039 98.7565 16.7962 98.3913C22.1551 97.5391 26.905 95.2262 29.9499 90.4786C33.2383 85.2441 35.5524 79.4009 37.3793 73.5578C38.5972 69.6623 39.328 65.6451 40.4241 61.7497C41.1549 58.8281 42.0075 55.9065 42.7382 52.9849C43.5908 49.3329 44.3215 45.6809 45.4177 42.1507C46.7574 37.6466 48.4625 33.3859 49.1933 28.7601C49.6804 25.9602 50.4112 23.2821 51.0202 20.604C51.142 20.1171 51.0202 19.6301 51.0202 19.2649C50.533 16.8303 50.1676 14.3956 49.6804 12.0827C49.3151 10.7436 48.9497 9.40456 48.2189 8.18723C45.2959 3.43965 41.3985 1.7354 36.4049 2.95273C34.8216 3.31792 33.2383 4.53525 31.7768 5.26565C30.1935 6.11778 29.0973 7.33511 28.3666 9.03937C26.6614 12.9348 24.8346 16.952 23.8602 21.0909C23.373 22.7952 22.6423 24.3777 22.0333 26.082C21.5461 27.6645 20.9371 29.1253 20.5718 30.7078C19.9628 33.2642 19.5974 36.064 18.9885 38.6204C17.4051 44.4636 15.7 50.3068 14.2385 56.15C13.386 59.315 12.2898 62.3583 12.0462 65.6451C11.6808 69.2971 14.4821 74.7751 19.4756 76.4793C21.5461 77.088 23.7384 77.2097 25.5653 76.1142C27.7576 74.7751 29.9499 73.3143 31.1678 70.8796C32.9947 67.2276 34.6998 63.5757 35.6742 59.5585C37.1357 53.4718 38.5972 47.2635 40.0587 41.1768C40.6677 38.6204 41.3985 35.9423 42.0074 33.3859C42.1292 32.7773 42.1292 32.2903 42.1292 31.6817C42.1292 31.073 41.1549 30.3426 40.3023 30.3426C39.5716 30.3426 39.2062 30.7078 39.0844 31.3165C38.9626 31.9251 38.9626 32.5338 38.8408 33.0207C38.3536 35.2119 37.8665 37.4031 37.2575 39.4726C35.5524 45.4375 33.7255 51.2807 31.8986 57.2456C30.8024 60.8975 29.4627 64.3061 27.7576 67.5928C27.0268 68.9319 26.0525 70.1492 24.9563 71.1231C22.1551 73.5578 18.5013 72.8274 16.7962 69.4188C15.9436 67.8363 15.4564 66.1321 15.8218 64.3061C16.309 61.141 16.6744 57.976 17.4051 54.9326C18.8667 49.3329 20.45 43.7332 22.0333 38.0118C22.1551 37.5248 22.2769 37.1596 22.3987 36.6727C23.0076 31.9251 24.591 27.421 26.0525 22.7952C26.7832 20.3605 27.6358 17.9259 28.7319 15.6129C29.8281 13.4217 31.046 11.2306 32.5075 9.40456C34.4562 6.9699 37.1357 5.38738 40.4241 5.87431C44.1997 6.36125 47.4882 9.64803 47.8535 13.1783C48.2189 15.9781 47.9753 18.778 47.2446 21.5778C46.1484 25.4733 45.9048 29.6122 43.9561 33.3859C43.7126 33.7511 43.7126 34.2381 43.5908 34.725C41.8857 41.7855 40.1805 48.846 38.4754 55.7848C37.3793 60.2889 36.1613 64.793 35.3088 69.4188C34.4562 73.6795 32.9947 77.6967 31.4114 81.7139C29.8281 85.6093 27.6358 89.1396 24.7128 92.3046C20.8154 96.5653 15.2129 95.8349 12.0462 93.4002C9.00138 90.9655 7.17447 87.8005 6.44371 84.0268C5.83475 80.2531 6.07833 76.6011 7.17447 72.9491C7.90523 70.3927 8.636 67.8363 9.24497 65.1582C9.48855 64.0626 9.48856 62.8453 9.85394 61.7497C10.9501 57.8542 12.0462 53.837 13.1424 49.9416C14.4821 45.194 15.7 40.4464 17.0398 35.6989C18.0141 32.2903 18.8667 28.8818 19.841 25.595C19.841 25.3516 19.841 25.1081 19.841 24.7429C18.9885 24.4994 18.5013 24.256 17.7705 23.6473ZM42.6164 29.1253C43.469 26.2037 44.3215 23.5256 44.9305 20.8474C45.5395 18.2911 45.6613 15.8564 45.1741 13.1783C44.3215 8.4307 38.5972 6.72644 35.0652 9.89149C33.3601 11.474 31.8986 13.3 31.046 15.4912C29.8281 18.778 28.6101 22.0648 27.6358 25.3516C26.4179 29.6122 25.3217 33.8729 24.2256 38.1335C22.6423 44.3419 21.0589 50.5503 19.3538 56.7586C18.6231 59.5585 18.1359 62.4801 18.1359 65.4017C18.1359 66.2538 18.1359 67.1059 18.3795 67.8363C19.232 70.6362 22.3987 71.3666 24.3474 69.1754C24.9563 68.445 25.5653 67.7146 25.9307 66.8625C27.1486 63.9409 28.4883 61.0193 29.2191 57.976C30.5588 52.6197 32.264 47.5069 33.8473 42.1507C34.8216 38.8639 36.0396 35.6988 36.5267 32.4121C37.2575 28.2731 38.5972 27.6645 42.6164 29.1253ZM30.9242 74.8968C29.7063 75.8707 29.0973 76.3576 28.3666 76.8445C26.905 78.0619 25.1999 78.914 23.373 79.2792C20.3282 79.6444 17.4051 79.4009 15.0911 76.8445C13.7513 75.3838 12.5334 73.8012 11.559 72.097C11.3155 71.61 11.1937 71.0014 10.2193 71.1231C9.36676 73.1926 8.39241 75.262 8.27062 77.6967C8.14882 80.4965 8.5142 83.2964 9.24497 85.9745C9.73214 87.557 10.4629 89.0178 11.4372 90.3569C13.8731 93.6437 18.8667 94.1306 21.9115 91.4525C23.8602 89.6265 25.6871 87.557 26.7832 85.1224C28.0012 82.4442 29.2191 79.8879 30.437 77.2097C30.6806 76.6011 30.6806 75.9924 30.9242 74.8968Z" fill="white"/>
</svg>
