<svg width="111" height="135" viewBox="0 0 111 135" fill="none" xmlns="http://www.w3.org/2000/svg">
<path d="M80.9877 132.11C79.648 133.936 77.6993 134.302 75.7506 134.058C73.9237 133.815 72.2186 133.45 70.5134 132.963C62.4751 130.771 54.3149 128.337 46.2765 126.267C40.065 124.563 33.7318 123.224 27.5203 121.641C24.5972 120.911 21.796 120.059 18.873 119.329C17.8986 119.085 16.9243 118.72 15.8281 118.598C11.6871 117.989 7.91153 116.529 4.13593 114.703C0.360325 112.877 -0.492246 109.955 0.238516 106.425C3.03977 93.8864 5.96281 81.2262 9.8602 68.9311C12.6615 59.9229 14.7319 50.7929 17.1678 41.663C18.264 37.2806 19.6037 33.02 20.8216 28.6376C21.9178 24.7421 23.0139 20.9684 24.1101 17.073C24.719 15.0035 25.328 12.8123 25.937 10.7429C26.6677 8.42993 27.5203 6.117 28.251 3.80408C29.1036 1.00422 30.6869 -0.213102 33.61 0.0303632C35.5587 0.152096 37.5074 0.39556 39.3343 0.760758C43.7188 1.73462 48.1034 2.83022 52.488 4.16928C61.6225 6.96914 70.8788 9.28206 80.1351 11.595C88.0517 13.6644 95.8465 15.8556 103.641 18.0468C104.859 18.412 106.077 19.0207 107.173 19.6293C110.096 21.0901 111.071 23.6465 110.462 26.8116C110.096 29.0028 109.731 31.194 109.122 33.2634C107.904 37.7675 106.443 42.1499 105.225 46.654C103.885 51.4016 102.789 56.1492 101.571 60.8968C100.718 64.1836 99.8657 67.3486 98.8913 70.6354C97.1862 76.4786 95.4811 82.3217 93.5324 88.0432C91.7055 93.2777 91.0965 98.8774 89.635 104.234C88.2953 108.981 87.0774 113.729 85.7377 118.355C84.8851 121.52 84.1543 124.563 83.18 127.728C82.571 129.067 81.7185 130.528 80.9877 132.11ZM42.1355 122.615C45.1804 123.589 47.738 124.32 50.2957 125.05C57.9687 127.241 65.7635 129.067 73.3147 131.745C75.8724 132.597 77.5775 131.867 78.6736 129.432C79.6479 126.998 80.6223 124.685 81.3531 122.128C83.3018 115.311 85.0069 108.373 86.8338 101.556C88.4171 95.8341 90.0004 90.1126 91.5837 84.3912C92.5581 80.9827 93.8978 77.5742 94.994 74.0439C95.3594 72.8266 95.6029 71.6093 95.9683 70.2702C96.5773 67.1051 97.0645 63.9401 97.917 60.775C100.353 51.7668 102.911 42.8803 105.346 33.8721C106.077 31.3157 106.93 28.6376 107.539 26.0812C108.269 23.4031 107.417 21.8205 104.737 20.6032C103.398 19.9945 102.18 19.3859 100.84 19.0207C97.1862 17.9251 93.4106 16.8295 89.635 15.8556C84.6415 14.5166 79.648 13.421 74.6544 12.0819C67.225 10.1342 59.9174 8.18646 52.488 6.23874C48.8342 5.26487 45.3022 4.16928 41.6483 3.31715C39.8214 2.83021 37.8728 2.58676 35.9241 2.22156C32.8792 1.73463 31.2959 2.70849 30.1998 5.50834C29.9562 6.23874 29.7126 6.96914 29.5908 7.69953C28.3729 12.6906 27.0331 17.6816 25.8152 22.6727C23.8665 30.3418 21.187 37.7675 19.6037 45.4367C18.1422 52.6189 15.0973 59.436 13.7576 66.74C13.514 68.079 13.1487 69.5398 12.6615 70.8789C10.2256 77.209 9.00767 83.7825 7.18077 90.2344C5.71924 95.7124 4.86668 101.312 2.79619 106.668C1.57825 109.712 2.30903 112.39 6.08463 113.12C6.20643 113.12 6.3282 113.242 6.45 113.242C13.514 115.19 20.6999 117.137 27.7639 119.085C31.4177 120.059 35.0715 120.668 38.9689 121.52C38.6035 120.546 38.1163 119.937 37.9945 119.329C37.7509 117.868 38.3599 116.772 39.4561 116.042C40.4304 115.311 41.4048 115.92 42.2573 116.65C44.206 118.111 44.3278 119.207 42.8663 121.155C42.9881 121.52 42.7445 121.885 42.1355 122.615ZM41.4048 118.842C41.4048 118.72 41.4048 118.598 41.4048 118.476C41.1612 118.598 40.9176 118.598 40.7958 118.842C40.7958 118.842 40.7958 119.085 40.7958 119.207C41.0394 119.085 41.283 118.963 41.4048 118.842Z" fill="white"/>
<path d="M77.8215 123.346C75.2638 122.98 73.0715 122.493 70.8792 121.885C61.1357 118.72 51.2705 116.042 41.2834 114.216C40.7962 114.094 40.309 114.094 39.8219 113.85C32.2707 111.172 24.3541 109.711 16.6811 107.642C14.7324 107.155 12.6619 106.668 10.7132 106.059C7.54658 105.086 6.8158 103.747 7.42477 100.581C7.54656 99.9728 7.79018 99.3642 7.91197 98.7555C9.49529 92.3037 10.9568 85.9735 12.5401 79.5217C13.0273 77.574 14.0016 75.6263 14.6106 73.6785C15.585 70.3917 16.3157 66.9832 17.2901 63.5747C18.6298 58.7054 20.2131 53.9578 21.431 49.0885C22.7708 44.0974 23.8669 39.1064 25.2066 34.1154C27.1553 27.2983 28.3733 20.2378 31.0527 13.6642C31.1745 13.299 31.2963 12.9338 31.4181 12.5686C32.2707 10.6209 33.3668 10.0122 35.4373 10.6209C41.527 12.0817 47.7384 13.786 53.8281 15.2468C67.9562 18.6553 81.7188 22.7942 95.7251 26.6897C97.7956 27.2983 99.9878 27.6635 101.815 29.0026C103.276 29.9764 104.007 31.1938 103.642 32.898C103.52 33.5067 103.52 34.2371 103.276 34.8457C100.84 42.6366 99.3789 50.5493 96.5776 58.3402C94.8725 63.3312 93.8982 68.5657 92.5585 73.6785C90.8534 80.4956 89.2701 87.4343 87.0778 94.2514C85.4944 98.9989 84.3983 103.99 82.9368 108.738C81.7188 112.876 80.5009 116.894 79.1612 120.911C78.9176 121.52 78.3086 122.372 77.8215 123.346ZM75.5074 120.911C76.6035 117.381 77.5779 114.094 78.5522 110.929C80.9881 103.016 83.424 95.1035 85.738 87.1909C85.9816 86.5822 86.1034 85.9735 86.2252 85.3649C87.1995 81.226 88.1739 77.087 89.1482 72.9481C90.0008 69.2961 90.8534 65.6442 91.8277 62.1139C92.4367 59.6792 93.2892 57.1229 94.02 54.6882C95.4815 49.4537 96.943 44.2192 98.4045 38.9847C98.8917 37.4021 99.2571 35.6979 99.8661 34.2371C100.353 33.0198 100.84 31.9242 100.475 30.4634C99.7443 30.0982 99.0135 29.733 98.2827 29.6112C90.9751 27.5418 83.6675 25.4723 76.2381 23.5246C74.6548 23.0377 72.9497 22.7942 71.3664 22.429C64.7895 20.7247 58.0909 19.1422 51.514 17.438C46.3987 16.0989 41.1616 15.4902 36.168 13.6642C35.5591 13.4208 34.9501 13.5425 34.2193 13.4208C33.9758 14.1512 33.7322 14.7598 33.6104 15.3685C32.0271 21.6986 30.5656 28.1504 28.9822 34.6023C27.6425 40.0803 26.3028 45.68 24.8413 51.0362C23.5015 55.9055 22.04 60.6531 20.7003 65.5224C19.8477 68.5658 18.9952 71.7308 18.1426 74.8959C17.7772 76.3566 16.8029 77.6957 16.5593 79.1565C15.5849 85.7301 13.6363 91.9385 12.0529 98.3903C11.6876 99.7294 11.444 101.068 11.0786 102.773C20.7003 105.694 30.2002 107.642 39.5783 110.685C51.2705 114.216 63.2062 117.381 75.5074 120.911Z" fill="white"/>
<path d="M71.2445 16.5861C70.7573 16.7079 70.2701 16.9513 69.7829 16.8296C69.1739 16.5861 68.6867 16.2209 68.3214 15.734C68.0778 15.4905 68.0778 14.8819 68.3214 14.6384C68.565 14.2732 69.2957 13.908 69.5393 14.0297C70.1483 14.2732 70.7573 14.7601 71.2445 15.3688C71.3662 15.6123 71.2445 16.0992 71.2445 16.5861Z" fill="white"/>
<path d="M49.3296 86.5286C44.6457 85.3002 39.9617 84.0717 35.2778 82.8433C32.802 82.1939 32.1561 80.9752 32.9225 78.4623C35.3813 70.3143 43.6436 65.5339 52.197 67.4153C54.3894 67.918 56.5552 68.5222 58.6165 69.3885C65.811 72.3609 69.7494 80.5222 67.8185 88.1573C67.2946 90.1548 66.0245 90.9072 63.8833 90.3456C59.0321 89.0733 54.1808 87.801 49.3296 86.5286ZM49.9497 84.8459C54.6337 86.0743 59.3354 87.2351 63.9927 88.5651C65.5897 89.0201 66.1845 88.5248 66.4502 86.9662C67.5508 80.4521 64.4774 74.0374 58.5406 71.1778C56.4479 70.1585 54.0704 69.6797 51.7953 69.083C44.611 67.1626 36.6539 71.7337 34.4861 78.9086C34.1063 80.2202 34.3835 80.7995 35.7217 81.1505C40.4992 82.2949 45.1989 83.5999 49.9497 84.8459Z" fill="white" stroke="white"/>
<path d="M66.8877 58.7124C65.4936 64.0277 60.177 67.1202 54.9332 65.7088C49.6894 64.2973 46.6596 58.9434 48.0871 53.6368C49.5146 48.3302 54.8401 45.2038 60.0504 46.6065C65.2943 48.018 68.2906 53.3632 66.8877 58.7124ZM49.7019 54.0241C48.4827 58.2636 51.0032 62.8326 55.1921 64.0398C59.448 65.2645 64.0694 62.641 65.264 58.3589C66.4408 54.1445 63.9627 49.5504 59.8987 48.4122C55.4087 47.126 50.9743 49.5815 49.7019 54.0241Z" fill="white" stroke="white"/>
</svg>
