<svg width="77" height="71" viewBox="0 0 77 71" fill="none" xmlns="http://www.w3.org/2000/svg">
<path d="M35.9769 69.8009C26.9642 67.3662 20.2655 65.175 14.4194 60.7926C12.9579 59.697 11.2528 58.8449 9.91307 57.6276C7.23361 55.1929 5.28491 52.2713 3.5798 49.1063C2.11827 46.4282 0.656745 43.6283 0.291364 40.585C0.0477771 39.2459 -0.0740127 37.9069 0.0477809 36.5678C0.0477809 34.6201 0.0477771 32.6724 0.291364 30.7246C0.534951 29.2638 0.900332 27.803 1.5093 26.464C2.60544 23.6641 3.70159 20.986 5.28491 18.4296C6.74643 16.1167 8.45154 14.0472 10.4002 12.2212C14.9066 8.08232 19.5347 4.3086 25.259 2.11741C27.3295 1.26528 29.4 0.656609 31.5923 0.169677C32.932 -0.0737882 34.6371 -0.0737808 35.9769 0.291418C37.682 0.778349 39.3871 0.900078 41.0922 1.14354C47.3037 1.75221 53.1498 3.45648 58.7523 6.1346C64.4766 8.93445 68.8611 13.0734 72.2714 18.3079C75.8034 23.7859 78.1174 29.629 76.4123 36.3243C76.2905 36.8113 76.4123 37.2982 76.4123 37.7851C76.5341 42.411 75.5598 46.7934 73.3675 50.9323C73.1239 51.5409 72.8803 52.0279 72.5149 52.6365C71.5406 54.706 70.3227 56.2885 68.4958 57.8711C66.5471 59.5753 64.8419 61.4013 62.6497 62.8621C59.483 64.8098 56.3164 66.6358 52.7844 67.8531C50.8357 68.4618 48.7652 68.827 46.6947 68.9487C42.4319 69.4357 38.1692 70.5313 35.9769 69.8009ZM54.7331 24.7597C53.5151 24.7597 52.2972 24.638 51.0793 24.8814C46.9383 25.4901 42.7973 25.3684 38.6563 25.1249C37.8038 25.1249 36.9512 25.1249 36.2205 25.1249C34.5154 30.8464 33.9064 39.0025 34.6371 42.2892C39.9961 43.6283 51.3229 43.0196 56.4382 41.0719C56.56 36.0809 55.951 31.0898 55.342 26.2205C55.342 25.7336 54.9767 25.3684 54.7331 24.7597ZM34.0282 46.5499C34.0282 51.1757 34.5154 55.5581 35.4897 60.184C41.0922 60.6709 46.2075 59.9405 51.4447 58.6014C52.6626 58.358 53.2716 57.3841 53.7587 56.2885C54.9767 53.3669 56.1946 50.3236 56.4382 47.1586C56.4382 46.4282 56.8036 45.6978 55.951 44.8456C53.7587 45.2108 51.3229 45.6978 49.0088 46.063C46.5729 46.3064 44.137 46.3064 41.7012 46.4282C39.0217 46.6716 36.464 45.8195 34.0282 46.5499ZM58.3869 23.9076C58.7523 26.5857 59.1177 29.1421 59.483 31.8202C59.7266 34.6201 59.9702 37.2982 60.2138 40.0981C65.8163 39.1242 69.5919 36.933 72.5149 33.4027C73.2457 27.6813 71.5406 22.9337 68.0086 18.7948C64.7202 20.6208 61.5535 22.2033 58.3869 23.9076ZM5.16311 28.1682C8.32974 31.8202 11.131 35.4722 16.1245 36.5678C16.9771 33.8897 17.8296 31.3333 18.6822 28.7769C19.6565 26.0988 20.6309 23.5424 21.6052 20.8643C18.6822 18.6731 16.0027 16.6036 13.3233 14.6559C9.42588 18.1861 6.38104 23.2989 5.16311 28.1682ZM31.7141 59.9405C32.2013 57.3841 31.1051 55.1929 30.8616 52.88C30.618 50.4453 30.618 48.0107 30.4962 45.6978C26.8424 44.4804 23.3104 43.2631 19.9001 42.1675C19.5348 42.0458 19.0476 42.2892 18.4386 42.411C18.0732 46.4282 18.3168 50.2019 18.6822 53.9756C18.804 54.9495 19.1694 55.9233 19.4129 56.7754C19.7783 58.1145 20.7527 58.8449 21.9706 59.0884C24.5283 59.5753 27.086 59.9405 29.6436 60.3057C30.2526 60.3057 30.9833 60.0622 31.7141 59.9405ZM30.3744 42.1675C30.7397 41.5588 30.8616 41.3154 30.8616 41.1936C30.8616 36.3243 31.4705 31.5768 32.3231 26.8292C32.4449 26.0988 32.2013 25.1249 32.2013 24.151C30.7397 23.7858 29.4 23.5424 28.1821 23.1772C26.7206 22.9337 25.5026 21.9599 23.9193 22.2033C21.727 27.4378 19.6565 32.4289 19.1694 38.1503C22.7014 40.098 26.3552 41.3154 30.3744 42.1675ZM54.1241 21.3512C53.028 17.334 51.3229 14.169 49.496 11.0039C48.5216 9.29965 47.3037 7.71712 46.2075 6.1346C45.355 5.039 44.2589 4.79553 42.7973 5.03899C42.5537 5.40419 42.0666 5.89113 41.823 6.37806C39.6307 10.7604 38.0474 15.508 37.073 20.2556C36.9512 20.7425 37.1948 21.2295 37.3166 21.7164C42.7973 22.4468 48.278 22.3251 54.1241 21.3512ZM4.31056 32.3072C4.06697 32.7941 3.94517 33.1593 3.82338 33.4027C3.70159 33.8897 3.5798 34.3766 3.5798 34.8635C3.5798 40.4632 5.28491 45.6978 8.32975 50.4453C9.06051 51.5409 9.79127 52.6365 10.7656 53.7321C12.2271 55.4364 13.8104 56.4103 16.3681 57.1407C14.7848 51.6627 15.272 46.1847 15.5156 40.585C13.4451 39.2459 11.74 37.6634 9.54768 36.6895C7.3554 35.8374 6.50284 33.5245 4.31056 32.3072ZM72.2714 36.933C68.4958 40.4632 64.3548 42.1675 60.092 44.1152C59.8484 46.1847 59.7266 48.2541 59.3612 50.3236C58.9959 52.2713 58.3869 54.2191 57.7779 56.4102C60.5792 55.5581 63.1368 54.9495 65.5727 54.0973C66.7906 53.7321 67.765 53.1235 68.374 51.9061C70.688 47.889 71.906 43.5066 72.3931 39.0025C72.3931 38.5155 72.3932 38.0286 72.2714 36.933ZM34.7589 3.9434C32.2013 3.82167 30.2526 3.5782 28.1821 4.18687C25.0155 5.28246 22.0924 6.74325 19.5347 8.93444C18.5604 9.78657 17.3425 10.517 16.2463 11.3691C15.7592 11.7343 15.5156 12.2212 15.0284 12.8299C17.7079 14.5342 20.0219 16.2384 22.5796 17.8209C24.8937 15.7515 25.9898 12.8299 28.0603 10.7604C30.2526 8.69097 32.3231 6.49979 34.7589 3.9434ZM25.6244 19.2817C27.9385 20.0121 30.009 20.6208 31.9577 21.1077C32.6884 21.3512 33.4192 20.8643 33.6628 20.1339C33.7846 19.6469 33.9064 19.16 34.0282 18.6731C35.0025 14.169 36.9512 10.03 39.1435 6.01286C39.3871 5.52593 39.6307 5.039 39.8743 4.55207C38.1692 3.45647 36.9512 3.9434 35.7333 5.03899C32.3231 8.44751 29.4 12.2212 26.7206 16.2384C26.477 17.2123 26.2334 18.0644 25.6244 19.2817ZM50.7139 6.74326C51.0793 7.59539 51.0793 8.08232 51.3229 8.44751C53.7587 11.4908 55.0985 15.0211 56.6818 18.5513C56.9254 19.16 57.4125 19.7687 57.7779 20.3773C60.4574 20.0121 62.6497 18.7948 64.8419 17.8209C65.3291 17.5775 65.8163 17.0905 66.1817 16.7254C63.5022 12.4647 57.0472 7.71712 50.7139 6.74326ZM37.1948 65.9054C41.4576 65.6619 45.5986 65.2968 49.6178 64.2012C49.7395 63.2273 49.7395 62.4969 49.8613 61.6448C45.2332 62.01 40.8486 62.3752 36.464 62.7404C36.3423 62.7404 36.0987 62.9838 35.8551 63.2273C36.3423 64.0794 36.7076 64.9315 37.1948 65.9054ZM24.8937 62.01C26.3552 63.9577 28.5475 63.5925 30.009 64.5664C30.9834 65.2968 32.2013 65.5402 33.4192 65.4185C32.932 62.8621 32.932 62.7404 31.3487 62.4969C29.4 62.2534 27.3295 62.1317 24.8937 62.01ZM55.2203 62.1317C57.6561 61.1578 59.7266 59.9405 61.7971 57.3841C59.483 58.1145 57.8997 58.6014 56.3164 59.2101C55.2203 59.697 54.9767 60.6709 55.2203 62.1317Z" fill="white"/>
</svg>
