<svg width="211" height="164" viewBox="0 0 211 164" fill="none" xmlns="http://www.w3.org/2000/svg">
<path d="M0 132.491C1.9487 131.152 3.41023 130.178 4.99354 129.204C7.06403 127.743 9.13453 126.283 11.205 124.943C11.814 124.578 12.423 124.213 13.0319 123.97C19.6088 122.265 25.4549 118.979 31.5445 115.935C36.4163 113.501 41.288 110.944 46.5252 109.118C49.8136 108.023 52.9802 106.318 56.1468 104.979C60.5314 103.153 64.916 101.206 69.4223 99.5014C71.4928 98.771 73.8069 98.5275 75.9992 98.0406C76.121 97.7971 76.3646 97.5536 76.3646 97.3102C74.7813 92.4408 75.512 87.5715 75.512 82.7022C75.6338 74.6679 75.9992 66.6335 76.121 58.7209C76.2428 52.8777 76.121 46.9128 76.3646 41.0696C76.6082 35.8351 76.9735 30.7223 77.7043 25.4878C78.1915 21.8358 77.9479 18.1838 77.9479 14.5318C77.9479 11.4885 77.9479 8.44521 79.044 5.40189C79.7748 3.45416 80.8709 2.1151 82.6978 1.7499C85.6209 1.0195 88.5439 0.167371 91.8324 0.167371C100.967 0.410837 110.101 0.167371 119.236 0.167371C128.492 0.167371 137.749 0.167371 147.127 0.167371C150.05 0.167371 152.973 0.0456492 156.018 0.0456492C161.255 -0.0760836 166.37 0.0456529 171.607 0.410851C180.254 1.14125 189.024 1.50644 197.671 2.1151C201.447 2.35857 205.222 2.72377 208.998 3.08897C209.363 11.1233 209.85 19.1577 210.094 27.0703C210.216 31.331 209.972 35.4699 209.85 39.7305C209.85 40.3392 209.729 40.8261 209.729 41.4348C210.216 48.1301 209.363 54.5819 208.511 61.1555C208.145 64.1988 208.023 67.3639 207.78 70.4072C207.414 76.0069 207.049 81.6066 206.927 87.2063C206.805 91.3452 207.171 95.6059 207.049 99.8665C206.927 103.275 206.684 106.562 206.318 109.97C205.953 113.622 204.248 116.666 201.081 118.735C200.838 118.857 200.716 119.222 200.472 119.587C201.081 120.318 201.812 121.17 202.421 122.022C203.761 123.97 203.882 125.917 202.664 127.987C201.568 129.813 200.35 131.395 198.524 132.613C195.722 134.439 193.286 136.752 190.485 138.821C189.024 139.917 187.44 140.769 185.735 141.621C180.985 143.812 176.235 145.882 171.607 148.194C164.787 151.725 157.723 154.89 151.146 159.029C150.293 159.516 149.441 160.003 148.466 160.246C141.889 162.315 135.191 163.898 128.127 162.681C126.3 162.315 124.473 162.437 122.768 162.194C117.044 161.463 111.685 159.272 106.082 157.933C103.646 157.446 101.21 156.716 98.7746 156.107C92.6849 154.525 86.3517 153.672 80.262 151.846C73.4415 149.899 66.3775 148.316 59.1917 147.464C58.4609 147.342 57.852 147.342 57.1212 147.099C51.3969 145.882 45.5508 144.542 39.8265 143.447C36.0509 142.838 32.3971 141.986 28.6215 141.499C22.1664 140.647 15.955 138.578 9.74349 137.117C7.18582 136.508 4.62816 135.413 2.19229 134.439C1.33973 133.83 0.852555 133.1 0 132.491ZM79.653 103.032H79.7748C79.2876 102.423 78.8005 101.693 78.1915 101.084C76.121 101.449 74.1723 101.449 72.3454 102.058C70.1531 102.666 68.2044 103.64 66.1339 104.371C59.3135 107.049 52.8584 110.457 45.9162 112.527C44.6983 112.892 43.6021 113.379 42.3842 113.866C38.4868 115.57 34.7112 117.396 30.9356 119.222C27.2818 120.926 23.5062 122.752 19.8524 124.335C18.878 124.822 17.7819 125.065 16.6857 125.43C12.6665 126.648 9.01273 128.717 5.60251 131.274C5.48072 131.395 5.48071 131.761 5.23713 132.247C5.96789 132.613 6.69865 132.978 7.42942 133.221C9.01273 133.708 10.7178 134.195 12.3012 134.682C16.0768 135.778 19.8524 136.995 23.7497 137.725C29.2305 138.821 34.833 139.673 40.3137 140.525C47.4995 141.743 54.6853 142.96 61.9929 144.177C65.7685 144.786 69.5441 145.273 73.1979 146.247C81.6017 148.438 90.1272 150.629 98.6528 152.212C101.819 152.82 104.986 153.551 108.031 154.646C109.005 155.011 109.98 155.133 110.954 155.377C112.903 155.864 114.851 156.229 116.678 156.594C120.454 157.568 124.229 158.542 127.883 159.516C132.146 155.133 136.652 151.238 141.89 148.438C146.639 145.882 151.511 143.812 156.383 141.499C160.646 139.551 164.909 137.725 169.049 135.656C177.453 131.639 185.613 127.378 194.261 123.97C195.966 123.361 197.793 122.874 199.254 121.535C198.767 119.587 197.549 118.857 195.6 118.735C193.774 118.735 191.947 118.492 190.12 118.37C188.536 118.248 187.075 118.248 185.492 118.005C184.395 117.883 183.299 117.761 182.203 117.518C180.133 117.153 178.062 116.787 175.992 116.422C172.094 115.814 168.197 115.448 164.3 114.84C161.376 114.353 158.453 113.744 155.652 113.379C147.248 112.283 138.966 111.309 130.685 109.605C126.909 108.875 123.255 108.144 119.479 107.536C112.659 106.44 105.839 105.588 99.0182 104.492C97.3131 104.249 95.7298 103.64 94.0247 103.64C92.076 103.64 90.1273 103.275 88.1786 102.788C85.2555 102.423 82.4543 101.814 79.653 103.032ZM80.9927 98.8927C82.2107 99.1361 83.5504 99.5013 84.8901 99.7448C87.326 100.11 89.8837 100.475 92.4413 100.84C94.7554 101.206 97.1913 101.571 99.6271 101.693C106.935 101.814 114.121 103.519 121.306 104.614C128.127 105.71 134.947 106.684 141.768 107.536C147.37 108.144 152.973 108.997 158.453 110.092C163.934 111.188 169.415 112.283 175.017 112.77C179.402 113.135 183.543 114.474 187.928 114.474C191.703 114.474 195.357 115.327 198.767 115.692C201.568 114.109 202.908 111.918 203.03 109.362C203.395 105.345 203.517 101.206 203.639 97.1884C203.639 96.2146 203.395 95.2407 203.395 94.2668C203.273 92.5626 203.152 90.8583 203.152 89.1541C203.273 85.3803 203.395 81.6066 203.639 77.8329C204.126 70.8941 203.882 63.8336 205.222 56.8949C205.709 54.095 206.075 51.2952 206.318 48.4953C206.684 42.4087 206.927 36.4438 207.049 30.3571C207.171 23.9053 207.171 17.4534 207.049 11.0016C207.049 9.05388 207.049 7.10615 205.953 5.15842C204.979 5.15842 204.004 5.03668 203.03 5.03668C199.011 5.03668 194.87 5.15842 190.851 5.03668C184.395 4.79322 178.062 3.69762 171.485 3.81936C168.075 3.81936 164.787 3.45417 161.376 3.45417C158.453 3.45417 155.53 3.69763 152.486 3.69763C146.761 3.69763 140.915 3.57589 135.191 3.57589C129.101 3.57589 123.133 3.69763 117.044 3.57589C108.274 3.57589 99.6271 3.33244 90.858 3.45417C88.3003 3.45417 85.8645 3.94109 83.3068 4.42802C80.5056 5.15842 79.8966 6.01055 79.653 8.81041C79.5312 10.7581 79.653 12.7059 79.653 14.6536C79.653 17.21 80.0184 19.7664 79.5312 22.201C78.5569 28.4094 78.8005 34.496 78.8005 40.7044C78.8005 48.1301 78.9222 55.5558 78.9222 62.9815C78.9222 71.868 78.6786 80.7545 78.5569 89.5193C78.6786 92.9278 79.2876 95.8494 80.9927 98.8927ZM130.685 159.637C132.146 159.759 132.877 159.759 133.486 159.881C134.217 159.881 134.947 160.124 135.556 159.881C138.966 158.664 142.742 158.542 146.152 157.081C148.223 156.229 150.05 154.89 152.12 154.038C156.139 152.212 159.671 149.047 164.056 147.829C169.658 143.934 176.113 141.743 182.081 138.699C184.883 137.239 187.562 135.778 189.998 133.952C191.947 132.613 193.774 131.03 195.6 129.569C196.209 129.082 196.94 128.474 197.427 127.865C197.793 127.378 197.793 126.769 197.915 126.039C197.306 126.039 196.94 125.796 196.818 125.917C192.921 127.5 189.024 129.082 185.126 130.787C183.178 131.639 181.472 132.856 179.524 133.708C173.312 136.63 166.979 139.43 160.768 142.23C156.87 143.934 152.973 145.638 149.197 147.342C146.639 148.438 143.96 149.534 141.646 150.994C137.992 153.307 134.582 155.985 130.685 159.637Z" fill="white"/>
<path d="M79.6534 103.032C83.6726 104.006 87.57 104.736 91.7109 105.223C96.7045 105.832 101.698 106.927 106.692 107.901C110.102 108.51 113.634 109.24 117.044 110.092C119.723 110.701 122.525 111.553 125.204 112.162C129.589 113.014 133.973 113.988 138.48 114.475C147.249 115.449 156.018 116.301 164.787 117.761C170.024 118.614 175.383 118.857 180.742 119.466C181.595 119.587 182.447 119.709 183.056 120.074C183.787 120.561 184.274 121.413 185.127 122.387C184.518 122.996 184.03 123.605 183.421 123.848C179.524 125.918 175.748 127.987 171.729 129.813C166.858 132.126 161.986 134.195 157.114 136.387C155.409 137.239 153.704 137.36 151.755 137.239C149.076 136.995 146.396 136.995 143.717 136.752C141.89 136.63 140.063 136.387 138.236 136.143C129.589 134.926 120.941 134.074 112.538 131.761C110.102 131.152 107.544 130.909 105.108 130.422C102.185 129.813 99.3839 129.083 96.4609 128.352C91.102 127.013 85.8648 125.431 80.5059 124.213C76.3649 123.239 72.224 122.752 68.083 122.022C60.5318 120.805 53.1024 119.587 45.9166 116.909C45.673 114.962 45.7948 114.718 47.0127 114.353C49.6922 113.501 52.3716 112.77 55.0511 111.797C62.7241 108.997 70.6406 106.805 78.0701 103.397C78.5572 103.153 79.1662 103.153 79.6534 103.032C79.7752 103.153 79.6534 103.032 79.6534 103.032ZM65.5253 115.205C61.9933 113.257 58.9485 112.77 55.66 114.596C54.6857 115.083 53.5895 115.327 52.4934 115.692C51.8844 115.935 51.0319 115.814 51.0319 116.909C53.4678 117.883 56.1472 118.248 58.7049 118.735C59.4356 118.857 60.41 118.614 61.1408 118.248C62.6023 117.64 63.942 116.666 65.5253 115.205ZM151.146 122.266C154.435 122.874 157.479 123.483 160.524 123.848C162.229 124.092 165.031 122.509 166.37 120.561C163.326 119.587 160.159 119.831 157.236 119.222C154.435 118.735 152.73 120.074 151.146 122.266ZM142.986 127.744C145.787 128.352 147.98 128.717 150.05 129.326C151.39 129.691 152.486 129.448 153.582 128.717C154.556 128.109 155.531 127.622 156.505 127.013C156.749 126.891 156.87 126.404 157.114 125.918C155.287 125.552 153.582 125.431 151.999 124.944C148.832 123.97 146.274 124.578 143.96 126.891C143.717 126.891 143.595 127.135 142.986 127.744ZM165.396 124.457C169.05 125.187 171.729 125.674 174.531 126.283C175.14 125.918 175.87 125.431 176.601 125.065C177.454 124.578 178.306 124.092 179.159 123.605C179.768 123.239 180.742 123.361 180.986 122.022C180.011 122.022 179.037 121.9 178.063 121.9C176.966 121.779 175.87 121.657 174.774 121.413C172.582 121.048 170.633 121.292 168.806 122.509C167.954 122.996 167.101 123.483 165.396 124.457ZM169.659 128.352C168.441 127.378 166.249 126.891 162.838 126.77C160.281 126.648 158.697 128.596 156.018 129.57C157.967 130.787 159.672 130.787 161.133 131.274C162.108 131.517 162.96 131.395 163.935 130.909C165.883 130.056 167.832 129.326 169.659 128.352ZM100.115 122.387C97.557 121.048 94.7558 120.926 92.1981 120.561C90.493 120.318 88.9097 121.535 87.57 123.361C90.7366 124.213 93.5378 124.944 96.4609 125.674C97.6788 124.457 98.775 123.483 100.115 122.387ZM108.031 116.788C105.839 116.301 104.256 116.057 102.794 115.692C99.9929 114.718 97.6788 115.448 95.4865 118.005C98.2878 119.222 101.211 119.466 104.012 119.953C105.23 118.979 106.326 118.127 108.031 116.788ZM147.492 131.517C145.544 131.03 143.839 130.909 142.377 130.3C139.332 129.083 137.505 130.665 135.313 132.978C137.749 133.343 139.819 133.83 141.768 134.074C143.96 134.561 145.665 133.465 147.492 131.517ZM94.7558 114.596C90.0058 111.797 85.9866 112.405 83.7943 115.935C85.3777 116.301 86.961 116.301 88.3007 116.909C91.2238 118.005 93.0507 116.666 94.7558 114.596ZM65.0381 119.344C67.5958 119.709 69.6663 119.953 71.7368 120.196C73.9291 120.44 75.2688 119.222 76.365 117.274C72.224 115.692 68.5702 115.205 65.0381 119.344ZM114.365 112.283C111.441 111.066 108.762 110.701 106.083 110.579C105.108 111.553 103.403 111.675 102.794 113.623C105.595 114.109 108.153 114.596 110.833 115.083C111.929 114.231 112.903 113.379 114.365 112.283ZM75.5124 120.926C77.8265 121.292 79.6534 121.413 81.3585 122.022C83.9161 122.874 85.6213 122.022 87.0828 119.953C86.1084 118.614 84.5251 119.1 83.3072 118.614C80.3841 117.518 78.07 118.248 75.5124 120.926ZM109.98 123.97C107.909 123.483 106.326 123.118 104.743 122.874C102.916 122.509 101.089 123.848 99.7493 126.161C101.942 126.648 104.012 127.257 106.083 127.744C107.422 126.404 108.64 125.309 109.98 123.97ZM119.114 125.796C116.8 125.187 114.852 124.822 112.903 124.335C111.442 125.431 109.98 126.526 108.275 127.744C112.416 129.204 115.826 130.178 119.114 125.796ZM118.018 129.935C122.038 132.369 124.839 130.787 127.396 127.865C123.377 125.674 121.307 126.039 118.018 129.935ZM98.0442 112.77C100.602 111.431 100.602 111.431 101.698 109.727C99.2621 109.118 96.8263 108.51 94.2686 107.901C93.2943 109.118 91.5891 109.24 91.3456 110.944C92.3199 111.31 93.1725 111.675 94.1468 111.918C95.4865 112.162 96.7045 112.405 98.0442 112.77ZM65.5253 111.797C67.3522 112.527 69.0573 113.623 70.8842 112.527C72.5893 111.553 74.7816 111.31 76.1213 109.362C74.6598 108.631 73.4419 108.388 72.224 108.631C69.9099 109.362 67.5958 110.336 65.5253 111.797ZM134.826 125.796C139.21 127.622 140.916 127.5 143.96 123.605C140.428 121.779 137.505 122.509 134.826 125.796ZM117.897 118.614C113.877 116.909 110.589 117.031 107.909 120.196C113.025 122.631 114.243 121.9 117.897 118.614ZM79.6534 110.457C78.1919 111.431 76.6085 112.527 74.9034 113.744C76.6085 114.962 78.3136 114.718 80.0188 115.205C81.6021 114.109 83.1854 113.136 85.0123 111.918C83.3072 110.701 81.6021 110.579 79.6534 110.457ZM125.813 123.726C127.762 125.187 129.467 124.944 131.05 125.309C132.268 124.335 133.364 123.605 134.46 122.752C134.704 122.631 134.704 122.266 135.069 121.779C133.243 121.413 131.537 121.048 129.832 120.683C128.493 121.657 127.275 122.509 125.813 123.726ZM147.492 121.779C150.294 120.196 150.294 120.196 151.512 118.492C149.806 118.248 148.101 118.127 146.518 117.883C144.204 117.518 142.864 118.614 141.89 120.561C142.377 120.805 142.742 120.926 143.108 121.048C144.569 121.292 146.031 121.535 147.492 121.779ZM126.666 131.517C132.025 133.221 133.73 132.735 135.678 129.326C131.294 127.987 131.294 127.987 126.666 131.517ZM125.935 120.196C121.307 118.735 119.723 119.1 117.409 122.266C122.768 123.97 123.255 123.848 125.935 120.196ZM123.743 114.596C122.038 114.109 120.454 113.501 118.871 113.136C116.8 112.649 116.07 113.257 114.974 115.692C116.557 116.057 118.262 116.422 119.845 116.666C121.429 116.909 122.768 116.422 123.743 114.596ZM147.614 134.195C153.582 136.143 154.678 136.021 157.236 133.587C152.973 131.761 151.39 131.882 147.614 134.195ZM82.9418 108.753C84.5251 109.971 86.2302 110.336 88.0571 109.849C89.2751 109.484 90.6148 109.118 91.2238 107.414C89.2751 107.171 87.57 106.927 85.9866 106.684C84.4033 106.684 83.429 107.292 82.9418 108.753ZM140.672 117.761C136.896 116.179 135.557 116.422 133.486 118.614C137.505 120.44 138.114 120.318 140.672 117.761ZM132.146 116.544C130.076 115.327 128.127 115.205 126.179 115.327C125.204 115.327 124.352 115.814 124.352 117.274C127.031 117.518 129.589 119.466 132.146 116.544ZM81.6021 106.562C81.3585 106.197 81.2367 105.71 80.9931 105.71C80.0187 105.588 79.1662 105.466 78.1919 105.71C77.2175 105.953 76.3649 106.562 75.9996 107.658C78.8008 108.145 78.8008 108.145 81.6021 106.562Z" fill="white"/>
<path d="M68.6914 138.699C71.1273 136.143 73.4413 134.438 76.1208 133.099C77.3387 132.491 78.6785 131.882 79.7746 131.152C80.5054 130.665 80.9925 129.813 81.9669 128.717C82.5759 128.717 83.672 128.595 84.7682 128.839C89.2745 129.691 93.9027 130.665 98.409 131.517C100.48 131.882 102.55 132.369 104.621 132.734C105.473 132.856 106.326 133.099 107.056 133.343C108.274 133.83 108.518 135.047 107.422 136.021C107.056 136.264 106.813 136.63 106.447 136.873C101.819 139.551 97.0693 141.986 91.954 143.69C90.736 144.055 89.1527 144.177 87.813 143.934C83.672 143.203 79.531 142.351 75.3901 141.499C74.2939 141.255 73.1978 140.89 72.2234 140.525C71.1273 139.916 70.1529 139.429 68.6914 138.699ZM74.6593 137.725C74.6593 137.969 74.7811 138.334 74.7811 138.577C80.14 139.673 85.3771 140.769 90.736 141.742C91.7104 141.864 92.9283 141.499 93.9027 141.012C96.8257 139.673 99.627 138.212 102.55 136.63C103.037 136.386 103.89 136.143 103.524 135.047C97.1911 133.586 90.736 132.125 84.6463 130.786C82.2105 134.682 78.0695 135.656 74.6593 137.725Z" fill="white"/>
<path d="M202.056 14.532C201.447 21.7143 200.96 28.2878 200.472 34.8614C199.985 41.8002 199.498 48.8607 199.863 55.7995C200.107 61.2774 199.62 66.7554 199.376 72.2334C199.133 78.5635 199.011 84.8936 198.767 91.2237C198.645 95.1191 198.767 99.0146 198.767 103.032C198.767 104.249 198.402 105.466 198.28 106.927C197.184 107.049 196.453 107.171 195.601 107.171C186.223 106.684 176.844 106.075 167.588 104.127C164.421 103.397 161.133 103.275 157.966 103.275C152.729 103.275 147.614 102.058 142.499 101.328C134.338 100.354 126.178 98.8929 117.896 98.2842C112.416 97.919 107.057 96.9451 101.698 95.8495C100.723 95.6061 99.7491 95.6061 98.7747 95.6061C97.9222 95.4844 97.0696 95.6061 96.2171 95.4843C91.5889 94.6322 86.9607 93.7801 82.2108 92.8062C81.9672 91.9541 81.7236 91.2237 81.7236 90.615C82.2108 84.2849 82.089 77.9548 82.8198 71.7465C83.5505 65.1729 83.4288 58.5993 83.6723 52.0257C83.7941 46.913 84.0377 41.9219 84.0377 36.8091C84.0377 30.966 84.0377 25.0011 84.0377 19.1579C84.0377 17.3319 83.7941 15.5059 83.6723 13.8017C84.5249 12.7061 85.7428 12.7061 86.839 12.7061C93.5376 12.9495 100.358 13.3147 107.057 13.5582C114.243 13.8016 121.307 14.0451 128.492 14.1668C133.729 14.2886 138.845 14.0451 144.082 14.6538C147.005 15.019 149.928 14.8973 152.973 15.019C156.87 15.1407 160.768 15.2625 164.787 15.2625C171.607 15.2625 178.55 15.2625 185.37 15.019C189.998 14.8973 194.626 14.2886 199.254 14.0451C199.863 13.6799 200.838 14.1668 202.056 14.532ZM200.229 16.4798C194.87 16.845 189.998 17.4536 185.005 17.5754C179.158 17.8188 173.191 17.8188 167.344 17.9406C163.934 18.0623 160.646 18.3058 157.236 18.184C151.024 17.9406 144.934 17.3319 138.723 17.0884C131.659 16.845 124.717 17.2102 117.653 16.6015C110.832 15.9928 103.89 15.9928 97.0696 15.7494C93.5376 15.6276 90.1274 15.6277 86.4736 15.6277C86.4736 16.358 86.4736 16.845 86.4736 17.4536C86.3518 24.5141 86.23 31.4529 86.1082 38.5134C85.9864 48.8607 85.7428 59.3297 85.621 69.677C85.621 70.6509 85.3774 71.6247 85.2556 72.5986C84.5249 78.4418 84.6467 84.2849 85.1339 90.2498C86.1082 90.4933 86.9607 90.7368 87.6915 90.7368C93.294 91.4672 98.7747 92.1976 104.377 92.928C109.493 93.5366 114.73 94.267 119.845 94.8757C123.742 95.3626 127.64 95.6061 131.537 96.2148C136.774 97.0669 142.011 98.1625 147.249 99.0146C150.537 99.6233 153.825 99.9885 157.236 100.232C162.107 100.475 167.101 100.841 171.851 102.058C174.043 102.545 176.235 102.91 178.428 103.397C183.299 104.371 188.171 104.493 193.043 104.98C193.652 105.101 194.383 104.858 195.235 104.858C195.357 103.762 195.601 102.788 195.601 101.814C195.601 98.7711 195.479 95.6061 195.601 92.5628C195.722 86.2327 196.088 79.9025 196.331 73.5724C196.575 66.3902 196.575 59.208 196.697 52.0257C196.697 48.9824 196.575 45.8174 196.819 42.774C197.184 38.7569 197.915 34.7397 198.402 30.7225C199.011 26.0967 199.62 21.4708 200.229 16.4798Z" fill="white"/>
<path d="M141.402 8.07986C141.159 8.68852 141.037 9.17546 140.793 9.41893C140.428 9.78413 139.819 9.90586 139.332 10.0276C138.357 10.1493 137.505 9.6624 137.505 8.932C137.627 7.95814 138.236 7.47119 139.088 7.47119C139.941 7.47119 140.672 7.83639 141.402 8.07986Z" fill="white"/>
<path d="M146.883 153.673C146.761 153.916 146.517 154.403 146.152 154.768C145.299 155.62 144.081 155.742 142.985 155.377C142.498 155.133 142.011 154.768 141.889 154.281C141.767 153.794 142.011 153.186 142.376 152.82C142.863 152.333 143.472 151.968 144.081 151.603C145.178 150.994 146.761 151.968 146.883 153.673Z" fill="white"/>
<path d="M152.973 149.534C153.703 147.586 155.043 146.977 156.505 146.855C156.992 146.855 157.723 147.342 158.088 147.829C158.575 148.56 158.088 149.047 157.479 149.534C156.018 150.629 154.556 150.507 152.973 149.534Z" fill="white"/>
</svg>
