<svg width="149" height="93" viewBox="0 0 149 93" fill="none" xmlns="http://www.w3.org/2000/svg">
<path d="M77.2765 9.51682C81.2783 7.58587 84.7281 5.79283 88.4539 4.13774C96.3196 0.55169 104.599 0.965464 112.879 1.37924C118.123 1.65509 123.09 3.03435 127.92 5.37907C132.198 7.44795 135.786 10.2064 138.96 13.5166C142.133 16.8268 145.031 20.4129 146.411 25.1023C147.515 29.1021 148.619 32.964 148.757 37.2397C148.895 40.1361 148.757 42.8946 148.205 45.7911C147.101 51.0322 144.755 55.3079 140.616 58.618C140.064 59.0318 139.65 59.4456 138.96 59.9973C139.236 60.8248 139.512 61.6524 139.788 62.6179C140.616 65.2384 141.581 67.7211 142.271 70.3417C143.651 75.5828 146.273 80.4102 146.825 85.9272C146.825 86.341 147.101 86.8927 147.101 87.3064C147.377 89.927 146.687 91.1683 144.203 91.9959C143.237 92.2717 142.409 92.2717 141.444 91.5821C140.064 90.4787 138.546 89.5132 137.166 88.5478C134.406 86.341 131.646 84.1341 129.024 81.9273C126.402 79.5826 123.78 77.2379 121.02 74.7553C118.675 75.7207 115.915 76.4104 113.017 76.8242C107.635 77.6517 102.529 76.5483 97.4235 75.5828C93.5597 74.7553 89.6959 73.5139 86.108 71.8588C84.3141 71.0313 82.2442 70.3417 80.1743 69.5141C79.2084 70.2037 78.2424 71.0313 77.2765 71.8588C75.4825 73.6519 73.4126 74.7553 71.0667 75.169C70.2388 75.307 69.4108 75.4449 68.7208 75.7207C61.2692 78.893 53.8175 77.6517 46.2279 75.8587C44.02 75.307 41.9501 74.4794 39.6042 73.7898C38.9142 74.4794 38.0863 75.169 37.2583 75.8587C35.3264 77.5138 33.3945 79.1688 31.1866 80.5481C24.8389 84.9617 17.5252 85.7892 10.2115 85.5134C7.17567 85.3755 3.86382 84.5479 1.37994 82.3411C-0.413981 80.824 -0.551975 79.3068 1.51793 77.7896C2.06991 77.3758 2.62188 77.1 3.17385 76.6862C8.83159 73.9277 13.3854 69.652 17.3872 64.9626C19.1811 62.8937 20.5611 60.2732 21.941 58.0664C20.0091 54.0665 18.2152 50.3426 16.4212 46.6186C12.6954 39.1707 12.4194 31.5848 15.0413 23.861C16.8352 18.8957 19.5951 14.3442 24.1489 11.3098C26.3568 9.79267 28.5647 8.27549 30.7726 6.62039C35.1884 3.44812 40.2942 2.06888 45.2619 0.551703C47.1938 3.12397e-06 49.4017 -0.137926 51.4716 0.137924C55.6114 0.689623 59.6133 1.51717 63.7531 2.2068C68.9968 3.3102 73.4126 5.65492 77.2765 9.51682ZM140.616 83.8583C140.202 81.6515 140.064 79.9964 139.512 78.6172C137.856 74.4794 137.166 70.0658 136.2 65.6522C135.786 63.4454 135.924 61.2386 134.544 59.3077C134.13 58.756 134.682 57.5147 135.096 56.6871C135.51 55.9975 136.338 55.7216 136.89 55.1699C140.478 51.7218 142.823 47.4461 142.823 42.6188C142.961 37.7914 142.409 32.8261 141.03 27.9987C138.684 19.8612 133.164 14.3442 126.264 10.0685C121.296 6.89624 115.639 6.20662 109.843 5.65492C100.735 4.96529 92.4558 7.31002 84.4521 11.1719C81.4163 12.5512 78.6564 14.4821 76.0345 16.551C73.8266 18.344 71.8947 20.5508 70.3768 22.8955C68.4449 25.9299 66.9269 29.378 66.099 32.964C65.409 36.1363 65.271 39.1707 66.099 42.3429C66.6509 44.6877 67.8929 46.7565 68.7208 48.9633C70.2388 52.9631 72.7227 56.1354 76.0345 58.8939C76.7245 59.4456 77.2765 59.9973 77.8284 60.549C80.4503 63.1696 83.4862 65.2385 86.936 66.6177C92.3178 68.6866 97.5615 70.8934 103.219 71.8588C109.015 72.9622 114.535 73.1002 120.054 70.7555C122.124 69.9279 123.642 70.2037 125.298 71.583C129.576 75.169 133.854 78.6172 138.132 82.2032C138.822 82.7549 139.374 83.0308 140.616 83.8583ZM72.7227 13.2408C71.3427 10.8961 69.8248 9.79266 68.0309 9.10304C64.1671 7.44794 60.1652 6.62039 56.1634 5.65492C50.3677 4.27567 45.1239 4.55152 40.0182 7.44795C39.4662 7.72379 38.7762 7.86172 38.2242 8.13757C33.1185 11.034 27.8747 13.6546 24.1489 18.4819C18.4912 25.654 16.5592 33.7916 19.0431 42.6188C20.5611 47.8599 22.769 52.8252 24.5629 57.7905C24.8389 58.4801 25.2528 59.3077 25.1148 59.9973C24.7009 61.7903 24.2869 63.8592 23.3209 65.3764C20.975 68.9624 18.4912 72.4105 14.9033 75.0311C12.9714 76.4103 10.4875 77.6517 9.10758 80.2723C10.4875 80.5481 11.7295 81.0998 12.9714 81.0998C20.975 81.2378 28.0127 79.1689 33.8084 73.514C35.3264 72.1347 36.9823 70.8934 38.6382 69.652C40.2942 68.2728 42.0881 68.2728 44.02 69.1003C45.3999 69.79 46.9178 70.2038 48.4358 70.7555C55.0595 72.9623 61.6832 73.6518 68.5828 71.583C71.7567 70.6175 74.3786 69.1004 77.1385 67.1694C75.6205 65.6522 74.2406 64.273 72.9986 63.0317C71.2047 61.2386 68.8588 59.8594 67.4789 57.7905C63.7531 52.4114 60.5792 46.6186 60.4412 39.8603C60.3032 34.4812 60.0272 29.1021 63.6151 24.4127C63.7531 24.1369 64.0291 23.861 64.0291 23.5851C64.305 21.1025 66.5129 19.9991 67.6169 18.0682C68.8588 16.1372 70.3768 14.3442 72.7227 13.2408Z" fill="white"/>
<path d="M117.019 41.377C116.467 43.3079 115.087 44.1355 113.155 43.7217C111.361 43.17 110.119 41.5149 110.533 39.8598C111.223 37.5151 114.811 36.5496 116.605 38.2047C117.709 39.1702 117.295 40.2736 117.019 41.377Z" fill="white"/>
<path d="M86.5219 42.4813C85.9699 43.9984 83.9 44.826 82.1061 44.2743C80.4501 43.7226 79.7602 41.7916 80.3121 39.9986C80.8641 38.3435 82.52 37.516 84.038 38.0677C86.1079 38.6194 87.2118 40.6883 86.5219 42.4813Z" fill="white"/>
<path d="M132.336 42.0671C132.06 42.3429 131.646 42.8947 131.094 43.0326C129.714 43.5843 127.782 43.0326 126.954 41.7913C126.126 40.6879 126.264 39.0328 127.23 37.7914C127.644 37.2397 128.61 36.9639 129.3 36.9639C131.508 37.1018 133.026 39.5844 132.336 42.0671Z" fill="white"/>
<path d="M101.288 41.3776C100.874 42.481 100.046 43.1706 98.8038 43.1706C97.6999 43.1706 96.7339 42.481 96.32 41.3776C95.768 39.8604 96.4579 37.6536 98.1139 37.1019C98.9418 36.8261 99.9078 36.8261 100.736 37.1019C101.702 37.5157 101.84 38.4812 101.564 39.4466C101.426 40.1363 101.426 40.8259 101.288 41.3776Z" fill="white"/>
<path d="M52.8515 40.9636C52.4375 42.2049 51.3335 42.8945 49.8156 43.0324C48.2977 43.0324 47.0557 42.3428 46.7798 41.3773C46.5038 40.4119 46.6418 39.5843 47.3317 38.7568C48.8497 37.1017 52.0235 37.6534 52.8515 39.8602C52.8515 40.136 52.8515 40.5498 52.8515 40.9636Z" fill="white"/>
<path d="M33.5321 38.8947C34.9121 39.4464 35.602 40.9635 35.0501 42.3428C34.4981 43.9979 32.9801 44.8254 31.7382 44.1358C30.3583 43.4462 29.8063 41.7911 30.4963 39.998C30.9102 38.8946 32.2902 38.343 33.5321 38.8947Z" fill="white"/>
</svg>
