<svg width="57" height="66" viewBox="0 0 57 66" fill="none" xmlns="http://www.w3.org/2000/svg">
<path d="M0.086063 11.1071C4.83601 26.4454 6.05393 42.2707 8.36801 58.2177C8.73339 61.1393 8.48982 64.6695 11.6565 65.2782C13.4834 65.6434 16.4064 64.4261 18.1115 64.0609C21.8871 63.2087 25.5409 62.3566 29.3165 61.5045C34.7972 60.2872 41.2523 60.0437 45.0279 55.5396C48.8035 50.9137 51.8483 45.1923 55.0149 40.2012C58.0598 35.3319 56.1111 31.0713 55.1367 25.715C53.5534 17.4372 51.9701 9.28109 50.3868 1.00326C50.265 0.151127 49.2907 -0.0923424 48.5599 0.0293905C32.7267 2.95098 17.0154 6.3595 1.1822 9.40282C-0.644706 9.76801 0.086063 12.5679 1.91297 12.2027C17.7461 9.15935 33.4575 5.75084 49.2907 2.82925C48.6817 2.46405 48.0727 2.09885 47.4638 1.85538C48.6817 8.06376 49.8996 14.3939 51.1176 20.6023C52.3355 26.8106 54.7714 33.7494 51.8483 39.7143C50.6304 42.2707 48.6817 44.7054 47.0984 47.0183C45.6368 49.3312 43.9317 53.1049 41.8613 54.8092C37.4767 58.2177 29.3165 58.7046 23.9576 59.8002C21.1563 60.4089 14.0923 63.2088 12.0218 61.9914C10.5603 61.1393 10.6821 53.5919 10.4385 51.6441C10.0731 48.6008 9.70773 45.5575 9.34235 42.5142C7.88082 31.6799 6.05393 20.9674 2.8873 10.4984C2.27833 8.5507 -0.522905 9.28109 0.086063 11.1071Z" fill="white"/>
<path d="M41.983 57.7306C45.2714 50.9135 45.3932 43.7313 42.3483 36.9143C41.8612 37.6447 41.2522 38.3751 40.765 38.9837C46.0022 40.8097 51.3611 39.9576 55.7456 36.6708C57.2071 35.5752 55.7456 33.0188 54.2841 34.1144C50.5085 36.9143 46.0022 37.6447 41.4958 36.0621C40.1561 35.5752 39.4253 37.1577 39.9125 38.1316C42.4701 43.9748 42.3484 50.3049 39.5471 56.0263C38.5728 57.974 41.1304 59.4348 41.983 57.7306Z" fill="white"/>
</svg>
