<svg width="142" height="146" viewBox="0 0 142 146" fill="none" xmlns="http://www.w3.org/2000/svg">
<path d="M71.6316 105.908C75.0419 104.812 78.0867 104.934 81.1315 105.664C82.1059 105.908 83.0803 106.273 84.0546 106.151C86.4905 106.151 88.8045 105.421 90.5097 103.473C92.5801 101.038 94.7724 98.6036 96.8429 96.0472C101.836 89.7171 108.657 87.6476 116.33 88.378C119.862 88.6215 123.15 89.8388 126.195 91.6648C131.189 89.4736 136.06 84.726 137.644 80.4654C139.227 76.5699 138.862 72.6745 137.035 69.0225C135.939 66.7096 134.234 64.3967 132.285 62.6924C129.24 60.136 125.464 59.5273 121.567 60.3795C118.522 61.1099 115.721 62.4489 113.041 64.0314C110.971 65.2488 109.022 66.5879 107.074 67.9269C104.029 69.9964 100.497 71.2137 96.9647 72.3093C88.8045 74.744 78.8175 70.8485 75.2854 60.9881C73.9457 57.2144 73.7021 53.319 75.6508 49.5452C75.8944 49.0583 76.138 48.4497 76.5034 48.0845C79.061 45.1629 81.7405 42.2413 84.42 39.3197C86.4905 37.0068 88.6828 34.8156 90.7533 32.5026C95.9904 26.5377 94.8942 18.8686 90.9968 13.0254C90.2661 12.0515 89.4135 11.0777 88.561 10.2256C86.8559 10.9559 86.6123 12.4167 85.7597 13.5123C84.6636 14.8514 82.3495 15.3383 81.3751 13.9993C79.67 11.6864 77.1124 10.8342 74.9201 9.37341C74.6765 9.25167 74.5547 9.00823 74.0675 8.5213C73.8239 4.99105 75.8944 2.43466 78.5739 0C79.9136 0.608664 81.1315 1.21733 82.3495 1.82599C83.9328 2.55639 85.2725 3.89543 87.343 3.28676C88.3174 3.0433 89.1699 4.01716 89.2917 5.11276C89.4135 5.96489 89.1699 6.81702 89.0481 7.66915C93.4327 11.1994 95.8686 15.7035 96.3557 21.3032C96.7211 25.6856 95.9904 29.7028 93.1891 33.2331C90.9968 35.7894 88.6828 38.2241 86.4905 40.7805C84.2982 43.3369 81.8623 45.7715 79.7918 48.3279C76.0162 53.0755 76.2598 59.1622 79.9136 63.9097C83.6892 68.7791 88.6827 70.4833 94.7724 69.9964C99.0352 69.6312 102.567 67.8052 105.856 65.3705C107.683 64.0315 109.509 62.6924 111.336 61.3533C114.381 59.1622 117.791 57.9448 121.323 57.0927C125.221 56.2406 128.996 56.9709 132.163 59.1621C138.984 63.788 142.394 70.2398 141.541 78.6394C141.176 82.0479 140.08 85.213 137.157 87.5259C135.451 88.865 133.625 90.204 131.798 91.6648C130.702 92.5169 129.605 93.3691 128.387 94.2212C129.24 95.3168 129.727 96.4124 130.458 97.1428C132.65 99.2122 132.894 101.89 133.016 104.447C133.137 106.394 132.041 107.977 130.58 109.194C127.9 111.386 124.855 111.994 121.445 111.386C119.009 110.899 117.304 108.586 117.061 105.786C116.939 102.743 117.791 99.9426 119.618 97.508C120.227 96.5341 121.08 95.8037 121.811 94.7081C121.08 93.0039 119.618 92.6387 118.157 92.517C114.259 92.03 110.362 92.2735 106.586 93.6125C103.785 94.5864 101.593 96.0472 99.8878 98.4819C98.9134 99.8209 97.9391 101.282 96.8429 102.499C94.8942 104.69 92.9455 107.003 90.2661 108.342C87.5866 109.681 84.7854 110.29 81.7405 109.316C78.8175 108.342 75.7726 107.734 72.606 108.707C72.3624 108.829 72.1188 109.073 71.7534 109.316C71.8752 110.046 71.8752 110.899 72.1188 111.629C73.8239 115.768 72.9714 119.663 71.1445 123.437C70.1701 125.507 68.8304 127.333 67.6125 129.159C64.6894 133.419 60.1831 135.489 55.6767 137.436C53.119 138.532 50.3178 139.019 47.6383 139.871C44.4717 140.845 41.1833 141.819 38.0166 143.036C32.2923 145.106 26.4462 145.471 20.6001 144.862C17.4335 144.497 14.6322 143.036 12.0746 141.332C5.61952 136.949 1.47855 130.985 0.260611 123.072C-0.591944 117.35 0.747784 111.872 2.81827 106.638C3.18366 105.664 3.91442 104.69 4.64518 103.838C10.3695 97.508 17.3117 93.2473 25.9591 92.03C28.2731 91.6648 30.709 91.4213 33.0231 91.0562C33.9974 90.9344 34.9718 90.6909 35.8243 90.3257C41.305 88.6215 46.7858 87.8911 52.51 88.4998C61.401 89.4736 68.9522 94.3429 70.7791 104.325C71.1445 104.568 71.3881 105.177 71.6316 105.908ZM31.1962 93.9777C30.2218 93.9777 29.4911 93.9777 28.8821 94.0995C21.6963 95.5603 14.9976 97.8732 9.63871 102.986C8.29898 104.325 7.08104 106.029 6.22849 107.734C5.37593 109.438 4.76697 111.386 4.27979 113.333C2.3311 121.733 3.54903 129.28 10.2477 135.245C13.4143 138.045 17.0681 139.871 21.0873 140.48C27.2988 141.454 33.3885 140.48 39.3563 138.532C40.0871 138.288 40.8179 137.923 41.4268 137.558C39.7217 134.393 38.0166 131.471 36.6769 128.428C35.2154 125.141 33.7538 121.855 32.9013 118.203C31.8051 113.577 31.1962 108.829 30.709 104.082C30.4654 102.134 30.3436 100.186 30.8308 98.2384C31.0744 97.0211 31.0744 95.682 31.1962 93.9777ZM44.8371 113.577C45.3242 111.142 46.4204 109.316 48.3691 108.342C52.0229 106.516 56.0421 105.664 60.183 106.029C61.2792 106.151 62.4971 106.516 63.3497 107.125C65.2984 108.464 67.0035 107.734 69.074 106.76C68.0996 103.96 67.7343 101.282 66.2727 98.7253C65.2984 97.021 63.9586 95.682 62.2535 94.4647C58.9651 92.2735 55.5549 91.1779 51.6575 90.8127C45.8114 90.4475 40.2089 91.4214 34.9718 93.1256C33.3885 96.1689 33.8756 99.334 33.9974 102.134C34.3628 106.395 34.85 110.655 36.0679 115.159C38.991 114.672 41.6704 114.185 44.8371 113.577ZM36.5551 117.107C36.6769 118.324 36.6769 119.42 37.0423 120.394C37.5294 121.855 38.1384 123.315 38.6256 124.654C40.0871 128.306 41.7922 131.837 43.9845 135.123C45.2024 136.949 45.8114 137.193 47.8819 136.584C52.0229 135.367 56.2857 134.15 59.9395 131.837C61.2792 130.985 62.6189 130.254 63.7151 129.159C68.9522 124.046 71.7534 118.081 69.1958 110.533C69.074 110.29 68.8304 110.168 68.5868 109.925C68.2214 109.925 67.7342 109.803 67.3689 109.925C67.0035 109.925 66.6381 110.168 66.2727 110.29C64.6894 114.307 63.9586 115.038 60.0612 116.498C58.7215 116.985 57.3818 117.107 56.0421 117.594C51.6575 118.933 47.7601 118.69 44.5935 114.916C41.914 115.646 39.4781 116.377 36.5551 117.107ZM125.099 96.0472C122.785 98.4819 120.714 100.917 120.471 104.325C120.349 106.638 121.323 108.099 123.638 108.342C126.804 108.707 131.189 106.029 129.484 101.403C128.631 99.334 127.535 97.2645 125.099 96.0472ZM62.4971 108.464C57.7472 107.003 53.728 107.977 49.8306 109.681C48.2473 110.412 47.5165 111.629 47.7601 113.455C48.7345 113.942 49.587 114.672 50.4396 114.672C54.5805 114.551 58.4779 114.064 62.01 111.751C62.2535 110.777 62.3753 109.803 62.4971 108.464ZM78.2085 2.79984C77.3559 4.74757 76.747 6.20835 76.0162 8.03434C77.8431 8.88647 79.3046 9.98207 81.2533 9.98207C82.3495 8.76474 83.3238 7.42568 84.0546 5.72142C82.2277 4.74756 80.5226 3.89544 78.2085 2.79984ZM87.8302 6.33009C87.5866 6.20835 87.343 5.96489 87.0994 5.84316C86.7341 6.33009 86.2469 6.81704 86.0033 7.30397C85.8815 7.54744 86.1251 8.03436 86.1251 8.39956C86.3687 8.27783 86.6123 8.2778 86.7341 8.03434C87.2212 7.42567 87.4648 6.81702 87.8302 6.33009Z" fill="white"/>
</svg>
