<svg width="145" height="126" viewBox="0 0 145 126" fill="none" xmlns="http://www.w3.org/2000/svg">
<path d="M9.53128 27.7179C8.80052 27.231 7.94797 26.7441 7.21721 26.1354C5.5121 24.5529 3.68518 22.9704 2.10186 21.1444C-0.577595 18.3445 -0.455787 15.0577 1.12753 11.7709C1.6147 10.9188 1.9801 9.94494 2.58907 9.21455C4.78135 6.41469 6.97363 3.73659 9.89668 1.66713C10.7492 1.1802 11.6018 0.693273 12.4543 0.449807C16.5953 -0.889254 19.8837 0.936745 22.8068 3.61487C23.7811 4.58873 24.6337 5.80604 25.7298 7.02337C26.3388 7.02337 27.1913 6.90164 27.9221 7.02337C29.5054 7.1451 30.358 8.11895 30.6016 9.82321C30.8452 11.7709 30.8452 11.7709 32.4285 13.5969C33.1592 13.4752 33.89 13.2317 34.7426 13.11C36.4477 12.9883 38.031 13.7187 38.3964 15.3012C39.0053 17.7358 40.7104 19.0749 42.4155 20.414C47.2873 24.1877 52.159 27.9614 57.0308 31.8569C60.5628 34.6567 63.973 37.4566 67.505 40.2564C70.6716 42.8128 73.8383 45.3692 77.0049 48.0473C81.8766 52.308 86.6266 56.6904 91.6201 60.8293C96.0047 64.603 100.511 68.255 105.017 71.7852C112.081 77.3849 119.145 82.8629 126.21 88.4626C128.28 90.1669 129.863 92.1146 130.959 94.671C133.395 100.149 136.44 105.383 139.241 110.861C140.703 113.783 142.408 116.461 143.139 119.748C143.261 120.478 143.991 121.209 144.357 121.939C144.844 122.913 144.844 123.887 144.235 124.739C143.626 125.591 142.652 125.956 141.555 125.713C139.363 125.226 137.171 124.617 134.979 124.009C130.594 122.791 126.331 121.452 121.947 120.478C116.588 119.261 112.203 116.339 108.184 112.809C103.921 109.035 99.4149 105.749 95.0304 102.34C90.6458 99.0534 86.2612 95.7666 81.9984 92.2363C79.5626 90.2886 77.4921 87.9757 75.178 85.9062C69.6973 81.2804 64.2166 76.6545 58.6141 72.1504C51.7937 66.6724 44.9732 61.3162 38.7617 55.2296C37.422 53.8905 36.0823 52.7949 34.6208 51.5776C30.358 47.9256 26.217 44.1519 22.1978 40.1347C22.076 40.013 21.9542 39.8912 21.9542 39.7695C20.8581 38.4304 18.544 39.0391 17.935 37.0914C17.4478 35.5089 15.7428 35.0219 14.7684 33.8046C14.2812 33.1959 13.4287 32.9525 12.6979 32.5873C9.53128 31.2482 9.53128 31.2482 9.53128 27.7179ZM27.8003 31.6134C30.358 33.6829 32.4285 35.6306 34.6208 37.3348C42.2937 43.4215 50.0885 49.3864 57.7615 55.5947C64.3384 60.8293 70.7934 66.3073 77.2485 71.6635C80.6587 74.4633 84.3125 76.6545 87.1138 80.1848C87.4792 80.6717 88.0881 81.2804 88.6971 81.5239C92.3509 83.715 95.5175 86.5149 98.6842 89.3148C102.338 92.3581 105.87 95.6449 109.646 98.4447C111.716 100.027 113.299 102.34 115.613 103.314C117.075 101.731 118.293 100.271 119.633 98.6882C115.857 95.4014 112.081 92.1146 108.062 88.9495C103.312 85.1758 98.5624 81.5238 94.056 77.3849C89.915 73.6112 86.1394 69.4723 81.5113 66.0638C72.6203 59.4902 64.3384 51.9428 56.3 44.3954C52.8898 41.2303 49.1142 38.5522 45.5822 35.6306C41.6848 32.4655 37.422 29.6657 34.0118 25.892C33.6464 25.5268 33.1592 25.2833 32.5503 24.7964C31.3323 26.3789 30.1144 27.9614 28.8964 29.5439C28.5311 30.1526 28.1657 30.883 27.8003 31.6134ZM114.639 107.088C113.421 105.992 112.325 105.14 111.229 104.166C104.043 97.836 96.8572 91.5059 89.1842 85.9062C86.8702 84.3237 85.0433 82.1325 82.851 80.3065C81.6331 79.2109 80.4151 77.9936 79.0754 76.898C73.4729 72.3939 67.9922 67.8898 62.3897 63.3856C57.6397 59.4902 52.8898 55.473 48.1398 51.5776C42.2938 46.83 36.2041 42.0824 30.358 37.3348C28.8965 36.2392 27.6785 34.9002 26.217 33.5611C25.1209 34.9002 23.6593 35.7523 23.4157 37.5783C27.0695 40.7434 30.4798 43.9084 33.89 46.9517C42.4155 54.2557 50.5757 62.0466 59.3448 68.9854C65.1909 73.6112 70.7934 78.4805 76.5177 83.2281C78.5882 84.9324 80.5369 86.6366 82.6074 88.4626C85.1651 90.6538 87.6009 92.9667 90.4022 94.9145C96.979 99.7838 103.556 104.41 109.524 110.009C110.011 110.496 110.742 110.618 111.351 111.105C112.569 109.644 113.543 108.427 114.639 107.088ZM125.966 92.9667C125.479 92.4798 124.87 91.8711 124.261 91.3842C121.581 89.193 118.78 87.0018 115.979 84.9324C110.011 80.1848 103.921 75.6807 98.197 70.8113C91.9855 65.5768 86.0176 60.0989 79.8062 54.7426C77.0049 52.308 74.2037 50.1168 71.4024 47.6821C67.2614 44.2736 63.2422 40.8651 59.1013 37.4566C54.9603 34.1698 50.5757 31.0047 46.4347 27.7179C43.2681 25.1616 40.2233 22.4834 37.0566 19.8053C36.2041 20.5357 34.7425 21.1444 34.3772 22.8486C34.9861 23.4573 35.5951 24.1877 36.3259 24.7964C39.4925 27.231 42.5373 29.5439 45.704 31.9786C50.3321 35.5088 54.8385 39.0391 59.1013 42.9345C64.0948 47.5604 69.2101 52.308 74.3255 56.8121C76.1524 58.3946 78.1011 59.8554 79.928 61.1945C84.5561 64.603 88.8189 68.4984 93.2035 72.1504C96.9791 75.3155 100.389 78.9675 104.287 81.889C110.376 86.3932 116.222 91.2625 121.947 96.2535C122.556 96.7404 123.165 97.1056 123.53 97.4708C124.383 95.8883 125.113 94.4275 125.966 92.9667ZM114.03 113.54C116.953 115.609 123.53 117.922 130.594 119.261C131.203 117.922 131.69 116.339 132.543 115.122C133.517 113.783 134.735 112.687 135.953 111.592C135.344 110.496 134.857 109.644 134.37 108.792C133.882 107.818 133.395 106.723 132.908 105.749C132.543 104.897 132.056 104.044 131.568 103.071C131.081 102.218 130.716 101.245 130.35 100.392C129.863 99.4186 129.376 98.4447 128.889 97.3491C128.524 96.497 128.524 95.4014 127.306 94.9145C125.966 96.1318 125.844 97.5926 125.601 99.1751C125.479 100.027 124.992 101.001 124.748 101.853C123.774 101.853 123.043 101.731 122.434 101.731C120.12 101.731 119.754 102.097 119.511 104.288C119.389 105.383 119.267 106.479 119.145 107.453C116.466 109.035 113.421 109.888 114.03 113.54ZM11.3582 25.405C13.6723 22.1182 15.8646 19.3184 17.8133 16.5185C19.8837 13.7187 22.685 11.5275 24.5119 8.60588C22.076 5.44083 18.7876 4.34526 15.7428 2.88446C11.2364 3.73659 11.1146 3.73657 8.43514 6.77989C6.97362 8.36242 5.75567 9.94495 4.53773 11.7709C2.34545 15.0577 2.58905 17.7359 5.3903 20.414C7.21721 22.1182 9.28769 23.579 11.3582 25.405ZM17.3261 33.5611C19.7619 30.2743 21.8324 27.1093 24.1465 24.1877C26.4606 21.1444 28.8965 18.101 31.4541 14.8143C30.4798 14.2056 29.749 13.7187 28.8964 13.11C25.8516 16.762 22.9286 20.0488 20.1273 23.579C18.544 25.6485 17.2043 27.9614 15.7428 30.2743C15.012 31.6134 15.1338 31.6134 17.3261 33.5611ZM35.1079 15.4229C34.0118 16.0316 33.281 16.1533 32.9157 16.6403C30.7234 19.1966 28.5311 21.753 26.4606 24.4311C24.3901 27.1093 22.5632 29.7874 20.6145 32.5873C20.0055 33.4394 19.2748 34.2915 19.6402 35.5088C19.8838 35.5088 20.1273 35.6306 20.1273 35.5088C21.7106 33.5611 23.294 31.6134 24.8773 29.6657C28.1657 25.5268 30.7234 20.7792 34.499 17.0055C34.8643 16.8837 34.8643 16.5185 35.1079 15.4229ZM28.1657 9.21455C26.826 9.94494 26.217 9.94497 25.9734 10.3102C24.8773 11.6492 24.0247 12.9883 22.9286 14.3273C20.3709 17.4924 17.8133 20.6574 15.2556 23.8225C14.1594 25.2833 13.1851 26.8658 12.3326 28.4483C11.9672 29.1787 11.9672 29.7874 12.9415 29.7874C15.2556 26.3789 17.2043 22.8486 19.7619 19.8053C22.4414 16.6403 25.2427 13.5969 28.1657 9.21455ZM133.761 119.626C136.684 121.574 137.293 121.696 140.703 121.696C139.729 119.139 138.876 116.705 137.049 114.635C134.491 116.583 134.491 116.583 133.761 119.626Z" fill="white"/>
</svg>
